<?xml version="1.0" standalone="yes"?>
<svg xmlns="http://www.w3.org/2000/svg" width="756" height="756">
<path style="fill:#215b62; stroke:none;" d="M0 0L0 756L756 756L756 0L0 0z"/>
<path style="fill:#81beb7; stroke:none;" d="M330 2L331 3L330 2M425 2L426 3L425 2M479 297C488.595 268.637 503.567 241.526 517.258 215C522.829 204.207 532.285 192.866 535 181C527.068 177.727 520.665 184.03 513 186.076C502.934 188.764 493.074 187.932 483 185.789C457.103 180.282 433.283 168.353 407 163.614C350.975 153.513 295.827 172.412 257.09 214C239.311 233.087 225.354 255.86 215.604 280C172.495 386.74 200.515 547.76 321 588.921C378.237 608.475 460.99 600.416 495.575 545C509.098 523.331 518.959 494.748 519 469C519.014 460.421 520.982 447.837 512.815 442.148C506.515 437.76 498.804 441.149 496.264 448.001C493.132 456.449 493.482 467.101 491.916 476C489.61 489.104 485.538 502.029 479.742 514C454.334 566.475 386.595 587.997 337 554.254C311.105 536.636 295.365 508.117 285.667 479C265.758 419.229 267.297 348.132 279.6 287C287.934 245.592 312.026 199.603 357 190.286C403.021 180.751 441.465 210.156 460.742 250C465.623 260.09 468.97 271.062 471.338 282C472.671 288.158 472.243 294.57 479 297M490 309L500 313C511.938 271.239 542.448 236.547 559 197C546.974 189.218 540.902 209.968 535.86 219C520.117 247.203 498.928 277.768 490 309M377 560C374.523 552.078 358.209 546.042 352 539.985C337.714 526.049 327.52 508.722 320.695 490C297.604 426.652 295.358 346.992 313.152 282C323.494 244.225 350.498 210.921 393 215.171C412.6 217.13 425.323 229.695 442 238C441.21 227.52 427.356 219.639 419 214.873C389.859 198.248 349.368 204.656 327.289 230C308.451 251.626 300.813 281.274 296.728 309C288.303 366.192 289.933 428.8 308.333 484C318.551 514.652 340.299 557.002 377 560M2 330L3 331L2 330M2 425L3 426L2 425M537 455C536.535 477.522 532.876 502.714 525.302 524C520.215 538.294 512.548 552.431 502.701 564C461.218 612.738 394.592 623.578 335 606.573C319.089 602.032 305.781 593.909 291 587C292.9 593.461 300.501 596.754 306 599.989C321.057 608.847 337.844 615.891 355 619.399C423.002 633.304 498.38 610.296 528.138 543C536.928 523.121 542.625 501.593 545.05 480C546.316 468.731 550.313 458.836 537 455z"/>
</svg>
