<?xml version="1.0" encoding="UTF-8" standalone="no"?>
<!DOCTYPE svg PUBLIC "-//W3C//DTD SVG 1.1//EN" "http://www.w3.org/Graphics/SVG/1.1/DTD/svg11.dtd">
<svg xmlns="http://www.w3.org/2000/svg" version="1.1" viewBox="0.00 0.00 756.00 756.00">
<g stroke-width="2.00" fill="none" stroke-linecap="butt">
<path stroke="#447993" vector-effect="non-scaling-stroke" d="
  M 462.56 9.60
  Q 462.78 9.97 462.42 10.52
  Q 462.19 10.88 462.60 10.77
  Q 463.22 10.61 463.67 11.00
  Q 464.05 11.33 463.55 11.27
  L 462.92 11.18
  Q 462.51 11.13 462.22 11.42
  L 442.26 31.36
  Q 442.12 31.50 441.93 31.50
  L 441.53 31.50
  Q 441.06 31.50 441.06 31.97
  Q 441.06 32.57 440.81 32.81
  Q 425.82 47.81 410.81 62.80
  Q 410.62 63.00 410.34 63.00
  Q 410.20 63.00 410.05 63.00
  Q 409.56 63.01 409.56 63.50
  Q 409.55 64.07 409.31 64.31
  Q 394.32 79.31 379.31 94.30
  Q 379.12 94.50 378.84 94.50
  Q 378.70 94.50 378.55 94.50
  Q 378.06 94.51 378.06 95.00
  Q 378.05 95.57 377.81 95.81
  Q 362.82 110.81 347.81 125.80
  Q 347.62 126.00 347.34 126.00
  Q 347.20 126.00 347.05 126.00
  Q 346.56 126.01 346.56 126.50
  Q 346.55 127.07 346.31 127.31
  Q 331.32 142.31 316.31 157.30
  Q 316.12 157.50 315.84 157.50
  Q 315.70 157.50 315.55 157.50
  Q 315.07 157.51 315.06 158.00
  Q 315.05 158.58 314.81 158.81
  Q 302.54 171.08 290.27 183.35
  A 0.92 0.92 0.0 0 0 290.00 184.00
  L 290.00 184.50
  Q 290.00 184.85 289.65 184.92
  Q 288.32 185.19 287.99 186.76
  Q 287.80 187.67 286.99 187.46
  Q 286.58 187.35 286.51 187.77
  L 286.24 189.26"
/>
<path stroke="#a4bccb" vector-effect="non-scaling-stroke" d="
  M 286.24 189.26
  Q 260.62 207.79 241.80 233.84"
/>
<path stroke="#447993" vector-effect="non-scaling-stroke" d="
  M 241.80 233.84
  Q 241.58 233.35 241.06 233.34
  Q 240.58 233.32 240.24 233.66
  L 221.68 251.85
  Q 221.53 252.00 221.32 252.00
  Q 221.19 252.00 221.05 252.00
  Q 220.56 252.01 220.56 252.50
  Q 220.55 253.07 220.31 253.31
  Q 205.32 268.31 190.31 283.30
  Q 190.12 283.50 189.84 283.50
  Q 189.70 283.50 189.55 283.50
  Q 189.06 283.51 189.06 284.00
  Q 189.05 284.57 188.81 284.81
  Q 173.82 299.81 158.81 314.80
  Q 158.62 315.00 158.34 315.00
  Q 158.20 315.00 158.05 315.00
  Q 157.56 315.01 157.56 315.50
  Q 157.55 316.07 157.31 316.31
  Q 142.32 331.31 127.31 346.30
  Q 127.12 346.50 126.84 346.50
  Q 126.70 346.50 126.55 346.50
  Q 126.06 346.51 126.06 347.00
  Q 126.05 347.57 125.81 347.81
  Q 110.82 362.81 95.81 377.80
  Q 95.62 378.00 95.34 378.00
  Q 95.20 378.00 95.05 378.00
  Q 94.56 378.01 94.56 378.50
  Q 94.55 379.07 94.31 379.31
  Q 79.32 394.31 64.31 409.30
  Q 64.12 409.50 63.84 409.50
  Q 63.70 409.50 63.55 409.50
  Q 63.06 409.51 63.06 410.00
  Q 63.05 410.57 62.81 410.81
  Q 47.82 425.81 32.81 440.80
  Q 32.62 441.00 32.34 441.00
  Q 32.20 441.00 32.06 441.00
  Q 31.58 441.01 31.54 441.49
  Q 31.52 441.79 31.42 442.08
  Q 31.34 442.31 31.14 442.51
  Q 21.41 452.14 11.79 461.92
  Q 11.75 461.95 11.49 462.36
  Q 11.06 463.03 9.47 461.97"
/>
<path stroke="#4e7899" vector-effect="non-scaling-stroke" d="
  M 0.83 353.23
  Q 0.73 355.64 1.97 356.76
  Q 2.44 357.18 2.89 356.73
  L 356.84 2.79
  Q 357.06 2.57 356.79 2.41
  L 356.41 2.18
  Q 356.28 2.10 356.42 2.03
  L 356.69 1.87
  Q 356.82 1.80 356.68 1.84
  Q 355.20 2.32 354.00 0.69"
/>
<path stroke="#3a7b8e" vector-effect="non-scaling-stroke" d="
  M 541.52 37.24
  Q 541.48 37.92 542.16 37.94
  A 0.65 0.64 23.7 0 1 542.59 39.04
  L 417.44 164.18
  Q 417.16 164.45 417.43 164.73
  Q 417.87 165.21 417.49 166.27"
/>
<path stroke="#9fbdc8" vector-effect="non-scaling-stroke" d="
  M 417.49 166.27
  C 372.07 155.28 324.82 162.40 286.24 189.26"
/>
<path stroke="#2e7c87" vector-effect="non-scaling-stroke" d="
  M 609.98 79.61
  L 504.35 185.26
  Q 504.01 185.60 504.01 186.09
  L 504.01 188.01"
/>
<path stroke="#9abdc5" vector-effect="non-scaling-stroke" d="
  M 504.01 188.01
  C 482.58 189.92 458.12 178.38 437.94 171.57
  Q 430.69 169.12 417.49 166.27"
/>
<path stroke="#217e80" vector-effect="non-scaling-stroke" d="
  M 662.51 129.21
  L 661.70 129.29
  Q 661.50 129.31 661.50 129.51
  L 661.50 129.86
  Q 661.50 130.15 661.30 130.35
  L 522.31 269.30
  Q 521.95 269.66 521.44 269.63
  Q 521.02 269.60 520.60 269.76
  Q 520.23 269.90 520.00 270.23
  L 516.00 276.04"
/>
<path stroke="#93bec1" vector-effect="non-scaling-stroke" d="
  M 516.00 276.04
  Q 535.70 236.13 558.41 197.96
  A 0.63 0.63 0.0 0 0 558.19 197.10
  L 551.78 193.23
  Q 551.33 192.96 551.06 193.42
  C 529.67 231.22 508.66 268.57 490.47 308.09
  A 0.66 0.66 0.0 0 0 490.79 308.96
  L 499.07 312.84"
/>
<path stroke="#217e80" vector-effect="non-scaling-stroke" d="
  M 499.07 312.84
  L 321.31 490.28
  A 0.89 0.89 0.0 0 0 321.59 491.73
  Q 322.64 492.20 321.49 493.27"
/>
<path stroke="#93bec1" vector-effect="non-scaling-stroke" d="
  M 321.49 493.27
  C 302.88 444.62 299.92 389.22 303.85 337.47"
/>
<path stroke="#2e7c87" vector-effect="non-scaling-stroke" d="
  M 303.85 337.47
  C 304.89 336.48 306.23 336.39 307.28 335.35
  Q 363.28 279.41 419.37 223.16"
/>
<path stroke="#93bec1" vector-effect="non-scaling-stroke" d="
  M 419.37 223.16
  Q 430.34 228.86 440.86 237.28
  Q 441.34 237.67 441.44 237.06
  C 441.75 235.13 441.81 233.98 440.35 232.46
  Q 431.25 223.01 419.99 216.19"
/>
<path stroke="#2e7c87" vector-effect="non-scaling-stroke" d="
  M 419.99 216.19
  L 427.99 207.66
  Q 428.11 207.53 428.26 207.62
  L 428.49 207.76
  Q 429.05 208.09 428.51 207.46
  Q 428.12 207.00 428.41 206.61"
/>
<path stroke="#93bec1" vector-effect="non-scaling-stroke" d="
  M 428.41 206.61
  C 455.13 228.51 469.21 260.26 473.86 293.96
  Q 473.93 294.41 474.33 294.63
  L 477.76 296.48
  Q 478.26 296.76 478.48 296.23
  Q 502.83 237.42 534.89 182.43
  Q 535.19 181.91 534.67 181.62
  L 530.27 179.18
  A 0.85 0.84 -47.4 0 0 529.39 179.22
  Q 517.84 186.88 504.01 188.01"
/>
<path stroke="#187f7b" vector-effect="non-scaling-stroke" d="
  M 709.34 196.18
  L 707.91 196.47
  Q 707.35 196.58 707.52 197.13
  Q 707.61 197.41 707.58 197.65
  Q 707.51 198.12 707.06 198.57
  Q 532.97 372.66 358.80 546.82"
/>
<path stroke="#8ebfbe" vector-effect="non-scaling-stroke" d="
  M 358.80 546.82
  Q 350.94 540.82 345.94 535.06
  Q 330.54 517.33 321.49 493.27"
/>
<path stroke="#8ebfbe" vector-effect="non-scaling-stroke" d="
  M 499.07 312.84
  L 516.00 276.04"
/>
<path stroke="#9abdc5" vector-effect="non-scaling-stroke" d="
  M 428.41 206.61
  C 407.03 190.23 380.07 184.13 353.91 190.55
  C 323.42 198.04 300.80 224.04 289.59 252.58
  C 275.15 289.35 271.26 331.37 271.30 369.02"
/>
<path stroke="#93bec1" vector-effect="non-scaling-stroke" d="
  M 271.30 369.02
  C 270.57 425.10 278.24 495.04 318.38 539.01"
/>
<path stroke="#89bfbc" vector-effect="non-scaling-stroke" d="
  M 318.38 539.01
  Q 343.46 566.45 381.26 569.87
  C 448.51 575.96 485.47 528.35 493.61 467.48
  Q 495.09 456.43 496.09 450.09
  C 498.28 436.29 514.93 437.74 517.79 450.91"
/>
<path stroke="#83c0b8" vector-effect="non-scaling-stroke" d="
  M 517.79 450.91
  C 519.77 459.29 518.87 469.90 517.89 477.74
  C 511.80 526.11 489.13 570.07 440.74 587.69
  C 417.96 595.99 392.42 598.40 368.08 596.72"
/>
<path stroke="#89bfbc" vector-effect="non-scaling-stroke" d="
  M 368.08 596.72
  Q 322.78 594.80 285.11 571.57"
/>
<path stroke="#93bec1" vector-effect="non-scaling-stroke" d="
  M 285.11 571.57
  C 239.68 541.96 213.20 493.37 203.70 440.98"
/>
<path stroke="#9abdc5" vector-effect="non-scaling-stroke" d="
  M 203.70 440.98
  Q 199.40 418.09 198.60 394.77"
/>
<path stroke="#9fbdc8" vector-effect="non-scaling-stroke" d="
  M 198.60 394.77
  C 195.76 337.04 207.86 281.23 241.80 233.84"
/>
<path stroke="#9abdc5" vector-effect="non-scaling-stroke" d="
  M 419.99 216.19
  C 389.46 198.20 349.59 204.92 326.83 231.62
  C 302.02 260.72 295.17 307.98 293.65 344.76"
/>
<path stroke="#2e7c87" vector-effect="non-scaling-stroke" d="
  M 293.65 344.76
  L 293.33 343.59
  Q 293.07 342.59 292.33 343.32
  L 273.54 362.01
  Q 273.20 362.34 273.09 362.81
  L 272.51 365.27
  Q 272.25 366.35 272.25 365.24
  L 272.25 364.01
  Q 272.25 363.59 272.10 363.98
  Q 272.05 364.12 272.00 364.26
  Q 271.88 364.56 271.80 364.25
  Q 271.76 364.11 271.69 364.00
  Q 271.54 363.76 271.52 364.04
  L 271.30 369.02"
/>
<path stroke="#0d8074" vector-effect="non-scaling-stroke" d="
  M 729.02 237.74
  Q 728.65 239.59 727.25 239.72
  Q 726.75 239.76 726.39 240.12
  Q 623.11 343.38 519.85 446.67
  C 519.22 447.31 518.83 447.24 518.00 447.35
  Q 517.14 447.47 517.84 447.98
  L 518.27 448.30
  A 0.09 0.09 0.0 0 0 518.41 448.26
  Q 518.46 448.13 518.49 447.99
  A 0.11 0.08 60.3 0 1 518.67 448.07
  Q 518.56 449.55 517.79 450.91"
/>
<path stroke="#1d7e7e" vector-effect="non-scaling-stroke" d="
  M 318.38 539.01
  Q 324.48 534.93 329.75 528.94
  Q 329.78 528.90 329.69 528.81
  Q 329.63 528.75 329.56 528.69
  A 0.24 0.15 -3.1 0 1 329.88 528.46
  Q 330.36 528.63 330.69 528.19"
/>
<path stroke="#89bfbc" vector-effect="non-scaling-stroke" d="
  M 330.69 528.19
  C 341.83 543.83 356.85 555.65 375.78 559.85
  Q 376.25 559.96 376.25 559.48
  L 376.25 557.27
  Q 376.25 556.79 375.80 556.61
  Q 367.28 553.12 358.80 546.82"
/>
<path stroke="#9abdc5" vector-effect="non-scaling-stroke" d="
  M 419.37 223.16
  Q 397.92 211.68 375.01 214.98
  C 318.93 223.04 306.56 292.64 303.85 337.47"
/>
<path stroke="#93bec1" vector-effect="non-scaling-stroke" d="
  M 330.69 528.19
  C 295.07 477.40 290.30 404.19 293.65 344.76"
/>
<path stroke="#3a7b8e" vector-effect="non-scaling-stroke" d="
  M 198.60 394.77
  Q 197.14 390.53 197.55 386.19
  A 0.83 0.83 0.0 0 0 196.13 385.52
  L 38.17 543.41"
/>
<path stroke="#0c796a" vector-effect="non-scaling-stroke" d="
  M 747.87 456.05
  L 746.63 455.42
  Q 746.14 455.17 745.95 455.68
  Q 745.35 457.28 744.44 458.19
  Q 601.49 601.13 458.55 744.08
  C 457.47 745.16 457.10 746.36 456.75 747.77"
/>
<path stroke="#0d8074" vector-effect="non-scaling-stroke" d="
  M 238.12 729.12
  Q 239.55 726.86 241.21 725.21
  Q 294.99 671.49 349.02 617.53"
/>
<path stroke="#83c0b8" vector-effect="non-scaling-stroke" d="
  M 349.02 617.53
  Q 385.41 626.68 423.29 620.69
  C 508.04 607.29 541.91 538.23 546.59 459.91
  Q 546.62 459.40 546.16 459.20
  L 537.95 455.53
  A 0.50 0.49 13.6 0 0 537.25 455.95
  Q 535.71 481.78 530.35 507.07
  C 517.98 565.39 470.75 606.52 411.78 613.02
  Q 384.21 616.06 356.38 611.59"
/>
<path stroke="#0d8074" vector-effect="non-scaling-stroke" d="
  M 356.38 611.59
  Q 358.13 607.08 361.07 605.33
  C 363.97 603.61 365.44 600.81 368.19 598.76
  Q 368.26 598.70 368.20 598.64
  L 367.45 597.87
  Q 366.85 597.25 367.71 597.25
  L 368.24 597.25
  Q 368.72 597.25 368.29 597.04
  Q 367.94 596.87 368.08 596.72"
/>
<path stroke="#2e7c87" vector-effect="non-scaling-stroke" d="
  M 203.70 440.98
  L 202.10 441.01
  Q 201.60 441.02 201.26 441.37
  Q 131.65 510.99 62.02 580.60
  Q 61.69 580.93 61.31 581.66
  Q 60.79 582.67 60.00 582.28"
/>
<path stroke="#1d7e7e" vector-effect="non-scaling-stroke" d="
  M 285.11 571.57
  Q 284.85 572.23 284.96 573.06
  Q 285.02 573.55 284.67 573.91
  L 166.99 691.58"
/>
<path stroke="#89bfbc" vector-effect="non-scaling-stroke" d="
  M 349.02 617.53
  Q 318.91 609.15 292.29 590.45
  Q 290.70 589.33 291.07 588.03
  Q 291.26 587.36 291.85 587.73
  Q 321.72 606.38 356.38 611.59"
/>
</g>
<path fill="#497896" d="
  M 368.07 0.00
  L 388.05 0.00
  Q 425.85 1.35 462.56 9.60
  Q 462.78 9.97 462.42 10.52
  Q 462.19 10.88 462.60 10.77
  Q 463.22 10.61 463.67 11.00
  Q 464.05 11.33 463.55 11.27
  L 462.92 11.18
  Q 462.51 11.13 462.22 11.42
  L 442.26 31.36
  Q 442.12 31.50 441.93 31.50
  L 441.53 31.50
  Q 441.06 31.50 441.06 31.97
  Q 441.06 32.57 440.81 32.81
  Q 425.82 47.81 410.81 62.80
  Q 410.62 63.00 410.34 63.00
  Q 410.20 63.00 410.05 63.00
  Q 409.56 63.01 409.56 63.50
  Q 409.55 64.07 409.31 64.31
  Q 394.32 79.31 379.31 94.30
  Q 379.12 94.50 378.84 94.50
  Q 378.70 94.50 378.55 94.50
  Q 378.06 94.51 378.06 95.00
  Q 378.05 95.57 377.81 95.81
  Q 362.82 110.81 347.81 125.80
  Q 347.62 126.00 347.34 126.00
  Q 347.20 126.00 347.05 126.00
  Q 346.56 126.01 346.56 126.50
  Q 346.55 127.07 346.31 127.31
  Q 331.32 142.31 316.31 157.30
  Q 316.12 157.50 315.84 157.50
  Q 315.70 157.50 315.55 157.50
  Q 315.07 157.51 315.06 158.00
  Q 315.05 158.58 314.81 158.81
  Q 302.54 171.08 290.27 183.35
  A 0.92 0.92 0.0 0 0 290.00 184.00
  L 290.00 184.50
  Q 290.00 184.85 289.65 184.92
  Q 288.32 185.19 287.99 186.76
  Q 287.80 187.67 286.99 187.46
  Q 286.58 187.35 286.51 187.77
  L 286.24 189.26
  Q 260.62 207.79 241.80 233.84
  Q 241.58 233.35 241.06 233.34
  Q 240.58 233.32 240.24 233.66
  L 221.68 251.85
  Q 221.53 252.00 221.32 252.00
  Q 221.19 252.00 221.05 252.00
  Q 220.56 252.01 220.56 252.50
  Q 220.55 253.07 220.31 253.31
  Q 205.32 268.31 190.31 283.30
  Q 190.12 283.50 189.84 283.50
  Q 189.70 283.50 189.55 283.50
  Q 189.06 283.51 189.06 284.00
  Q 189.05 284.57 188.81 284.81
  Q 173.82 299.81 158.81 314.80
  Q 158.62 315.00 158.34 315.00
  Q 158.20 315.00 158.05 315.00
  Q 157.56 315.01 157.56 315.50
  Q 157.55 316.07 157.31 316.31
  Q 142.32 331.31 127.31 346.30
  Q 127.12 346.50 126.84 346.50
  Q 126.70 346.50 126.55 346.50
  Q 126.06 346.51 126.06 347.00
  Q 126.05 347.57 125.81 347.81
  Q 110.82 362.81 95.81 377.80
  Q 95.62 378.00 95.34 378.00
  Q 95.20 378.00 95.05 378.00
  Q 94.56 378.01 94.56 378.50
  Q 94.55 379.07 94.31 379.31
  Q 79.32 394.31 64.31 409.30
  Q 64.12 409.50 63.84 409.50
  Q 63.70 409.50 63.55 409.50
  Q 63.06 409.51 63.06 410.00
  Q 63.05 410.57 62.81 410.81
  Q 47.82 425.81 32.81 440.80
  Q 32.62 441.00 32.34 441.00
  Q 32.20 441.00 32.06 441.00
  Q 31.58 441.01 31.54 441.49
  Q 31.52 441.79 31.42 442.08
  Q 31.34 442.31 31.14 442.51
  Q 21.41 452.14 11.79 461.92
  Q 11.75 461.95 11.49 462.36
  Q 11.06 463.03 9.47 461.97
  Q 1.29 425.39 0.00 387.68
  L 0.00 368.44
  L 0.83 353.23
  Q 0.73 355.64 1.97 356.76
  Q 2.44 357.18 2.89 356.73
  L 356.84 2.79
  Q 357.06 2.57 356.79 2.41
  L 356.41 2.18
  Q 356.28 2.10 356.42 2.03
  L 356.69 1.87
  Q 356.82 1.80 356.68 1.84
  Q 355.20 2.32 354.00 0.69
  L 368.07 0.00
  Z"
/>
<path fill="#52779c" d="
  M 354.00 0.69
  Q 355.20 2.32 356.68 1.84
  Q 356.82 1.80 356.69 1.87
  L 356.42 2.03
  Q 356.28 2.10 356.41 2.18
  L 356.79 2.41
  Q 357.06 2.57 356.84 2.79
  L 2.89 356.73
  Q 2.44 357.18 1.97 356.76
  Q 0.73 355.64 0.83 353.23
  C 14.23 162.07 163.78 14.55 354.00 0.69
  Z"
/>
<path fill="#3e7a90" d="
  M 462.56 9.60
  Q 503.61 19.08 541.52 37.24
  Q 541.48 37.92 542.16 37.94
  A 0.65 0.64 23.7 0 1 542.59 39.04
  L 417.44 164.18
  Q 417.16 164.45 417.43 164.73
  Q 417.87 165.21 417.49 166.27
  C 372.07 155.28 324.82 162.40 286.24 189.26
  L 286.51 187.77
  Q 286.58 187.35 286.99 187.46
  Q 287.80 187.67 287.99 186.76
  Q 288.32 185.19 289.65 184.92
  Q 290.00 184.85 290.00 184.50
  L 290.00 184.00
  A 0.92 0.92 0.0 0 1 290.27 183.35
  Q 302.54 171.08 314.81 158.81
  Q 315.05 158.58 315.06 158.00
  Q 315.07 157.51 315.55 157.50
  Q 315.70 157.50 315.84 157.50
  Q 316.12 157.50 316.31 157.30
  Q 331.32 142.31 346.31 127.31
  Q 346.55 127.07 346.56 126.50
  Q 346.56 126.01 347.05 126.00
  Q 347.20 126.00 347.34 126.00
  Q 347.62 126.00 347.81 125.80
  Q 362.82 110.81 377.81 95.81
  Q 378.05 95.57 378.06 95.00
  Q 378.06 94.51 378.55 94.50
  Q 378.70 94.50 378.84 94.50
  Q 379.12 94.50 379.31 94.30
  Q 394.32 79.31 409.31 64.31
  Q 409.55 64.07 409.56 63.50
  Q 409.56 63.01 410.05 63.00
  Q 410.20 63.00 410.34 63.00
  Q 410.62 63.00 410.81 62.80
  Q 425.82 47.81 440.81 32.81
  Q 441.06 32.57 441.06 31.97
  Q 441.06 31.50 441.53 31.50
  L 441.93 31.50
  Q 442.12 31.50 442.26 31.36
  L 462.22 11.42
  Q 462.51 11.13 462.92 11.18
  L 463.55 11.27
  Q 464.05 11.33 463.67 11.00
  Q 463.22 10.61 462.60 10.77
  Q 462.19 10.88 462.42 10.52
  Q 462.78 9.97 462.56 9.60
  Z"
/>
<path fill="#357b8b" d="
  M 541.52 37.24
  Q 578.16 54.86 609.98 79.61
  L 504.35 185.26
  Q 504.01 185.60 504.01 186.09
  L 504.01 188.01
  C 482.58 189.92 458.12 178.38 437.94 171.57
  Q 430.69 169.12 417.49 166.27
  Q 417.87 165.21 417.43 164.73
  Q 417.16 164.45 417.44 164.18
  L 542.59 39.04
  A 0.65 0.64 23.7 0 0 542.16 37.94
  Q 541.48 37.92 541.52 37.24
  Z"
/>
<path fill="#267d83" d="
  M 609.98 79.61
  Q 638.75 102.00 662.51 129.21
  L 661.70 129.29
  Q 661.50 129.31 661.50 129.51
  L 661.50 129.86
  Q 661.50 130.15 661.30 130.35
  L 522.31 269.30
  Q 521.95 269.66 521.44 269.63
  Q 521.02 269.60 520.60 269.76
  Q 520.23 269.90 520.00 270.23
  L 516.00 276.04
  Q 535.70 236.13 558.41 197.96
  A 0.63 0.63 0.0 0 0 558.19 197.10
  L 551.78 193.23
  Q 551.33 192.96 551.06 193.42
  C 529.67 231.22 508.66 268.57 490.47 308.09
  A 0.66 0.66 0.0 0 0 490.79 308.96
  L 499.07 312.84
  L 321.31 490.28
  A 0.89 0.89 0.0 0 0 321.59 491.73
  Q 322.64 492.20 321.49 493.27
  C 302.88 444.62 299.92 389.22 303.85 337.47
  C 304.89 336.48 306.23 336.39 307.28 335.35
  Q 363.28 279.41 419.37 223.16
  Q 430.34 228.86 440.86 237.28
  Q 441.34 237.67 441.44 237.06
  C 441.75 235.13 441.81 233.98 440.35 232.46
  Q 431.25 223.01 419.99 216.19
  L 427.99 207.66
  Q 428.11 207.53 428.26 207.62
  L 428.49 207.76
  Q 429.05 208.09 428.51 207.46
  Q 428.12 207.00 428.41 206.61
  C 455.13 228.51 469.21 260.26 473.86 293.96
  Q 473.93 294.41 474.33 294.63
  L 477.76 296.48
  Q 478.26 296.76 478.48 296.23
  Q 502.83 237.42 534.89 182.43
  Q 535.19 181.91 534.67 181.62
  L 530.27 179.18
  A 0.85 0.84 -47.4 0 0 529.39 179.22
  Q 517.84 186.88 504.01 188.01
  L 504.01 186.09
  Q 504.01 185.60 504.35 185.26
  L 609.98 79.61
  Z"
/>
<path fill="#1c7e7d" d="
  M 662.51 129.21
  Q 689.55 160.11 709.34 196.18
  L 707.91 196.47
  Q 707.35 196.58 707.52 197.13
  Q 707.61 197.41 707.58 197.65
  Q 707.51 198.12 707.06 198.57
  Q 532.97 372.66 358.80 546.82
  Q 350.94 540.82 345.94 535.06
  Q 330.54 517.33 321.49 493.27
  Q 322.64 492.20 321.59 491.73
  A 0.89 0.89 0.0 0 1 321.31 490.28
  L 499.07 312.84
  L 516.00 276.04
  L 520.00 270.23
  Q 520.23 269.90 520.60 269.76
  Q 521.02 269.60 521.44 269.63
  Q 521.95 269.66 522.31 269.30
  L 661.30 130.35
  Q 661.50 130.15 661.50 129.86
  L 661.50 129.51
  Q 661.50 129.31 661.70 129.29
  L 662.51 129.21
  Z"
/>
<path fill="#ffffff" d="
  M 417.49 166.27
  Q 430.69 169.12 437.94 171.57
  C 458.12 178.38 482.58 189.92 504.01 188.01
  Q 517.84 186.88 529.39 179.22
  A 0.85 0.84 -47.4 0 1 530.27 179.18
  L 534.67 181.62
  Q 535.19 181.91 534.89 182.43
  Q 502.83 237.42 478.48 296.23
  Q 478.26 296.76 477.76 296.48
  L 474.33 294.63
  Q 473.93 294.41 473.86 293.96
  C 469.21 260.26 455.13 228.51 428.41 206.61
  C 407.03 190.23 380.07 184.13 353.91 190.55
  C 323.42 198.04 300.80 224.04 289.59 252.58
  C 275.15 289.35 271.26 331.37 271.30 369.02
  C 270.57 425.10 278.24 495.04 318.38 539.01
  Q 343.46 566.45 381.26 569.87
  C 448.51 575.96 485.47 528.35 493.61 467.48
  Q 495.09 456.43 496.09 450.09
  C 498.28 436.29 514.93 437.74 517.79 450.91
  C 519.77 459.29 518.87 469.90 517.89 477.74
  C 511.80 526.11 489.13 570.07 440.74 587.69
  C 417.96 595.99 392.42 598.40 368.08 596.72
  Q 322.78 594.80 285.11 571.57
  C 239.68 541.96 213.20 493.37 203.70 440.98
  Q 199.40 418.09 198.60 394.77
  C 195.76 337.04 207.86 281.23 241.80 233.84
  Q 260.62 207.79 286.24 189.26
  C 324.82 162.40 372.07 155.28 417.49 166.27
  Z"
/>
<path fill="#357b8b" d="
  M 428.41 206.61
  Q 428.12 207.00 428.51 207.46
  Q 429.05 208.09 428.49 207.76
  L 428.26 207.62
  Q 428.11 207.53 427.99 207.66
  L 419.99 216.19
  C 389.46 198.20 349.59 204.92 326.83 231.62
  C 302.02 260.72 295.17 307.98 293.65 344.76
  L 293.33 343.59
  Q 293.07 342.59 292.33 343.32
  L 273.54 362.01
  Q 273.20 362.34 273.09 362.81
  L 272.51 365.27
  Q 272.25 366.35 272.25 365.24
  L 272.25 364.01
  Q 272.25 363.59 272.10 363.98
  Q 272.05 364.12 272.00 364.26
  Q 271.88 364.56 271.80 364.25
  Q 271.76 364.11 271.69 364.00
  Q 271.54 363.76 271.52 364.04
  L 271.30 369.02
  C 271.26 331.37 275.15 289.35 289.59 252.58
  C 300.80 224.04 323.42 198.04 353.91 190.55
  C 380.07 184.13 407.03 190.23 428.41 206.61
  Z"
/>
<path fill="#ffffff" d="
  M 516.00 276.04
  L 499.07 312.84
  L 490.79 308.96
  A 0.66 0.66 0.0 0 1 490.47 308.09
  C 508.66 268.57 529.67 231.22 551.06 193.42
  Q 551.33 192.96 551.78 193.23
  L 558.19 197.10
  A 0.63 0.63 0.0 0 1 558.41 197.96
  Q 535.70 236.13 516.00 276.04
  Z"
/>
<path fill="#137f78" d="
  M 709.34 196.18
  Q 720.36 216.35 729.02 237.74
  Q 728.65 239.59 727.25 239.72
  Q 726.75 239.76 726.39 240.12
  Q 623.11 343.38 519.85 446.67
  C 519.22 447.31 518.83 447.24 518.00 447.35
  Q 517.14 447.47 517.84 447.98
  L 518.27 448.30
  A 0.09 0.09 0.0 0 0 518.41 448.26
  Q 518.46 448.13 518.49 447.99
  A 0.11 0.08 60.3 0 1 518.67 448.07
  Q 518.56 449.55 517.79 450.91
  C 514.93 437.74 498.28 436.29 496.09 450.09
  Q 495.09 456.43 493.61 467.48
  C 485.47 528.35 448.51 575.96 381.26 569.87
  Q 343.46 566.45 318.38 539.01
  Q 324.48 534.93 329.75 528.94
  Q 329.78 528.90 329.69 528.81
  Q 329.63 528.75 329.56 528.69
  A 0.24 0.15 -3.1 0 1 329.88 528.46
  Q 330.36 528.63 330.69 528.19
  C 341.83 543.83 356.85 555.65 375.78 559.85
  Q 376.25 559.96 376.25 559.48
  L 376.25 557.27
  Q 376.25 556.79 375.80 556.61
  Q 367.28 553.12 358.80 546.82
  Q 532.97 372.66 707.06 198.57
  Q 707.51 198.12 707.58 197.65
  Q 707.61 197.41 707.52 197.13
  Q 707.35 196.58 707.91 196.47
  L 709.34 196.18
  Z"
/>
<path fill="#ffffff" d="
  M 419.99 216.19
  Q 431.25 223.01 440.35 232.46
  C 441.81 233.98 441.75 235.13 441.44 237.06
  Q 441.34 237.67 440.86 237.28
  Q 430.34 228.86 419.37 223.16
  Q 397.92 211.68 375.01 214.98
  C 318.93 223.04 306.56 292.64 303.85 337.47
  C 299.92 389.22 302.88 444.62 321.49 493.27
  Q 330.54 517.33 345.94 535.06
  Q 350.94 540.82 358.80 546.82
  Q 367.28 553.12 375.80 556.61
  Q 376.25 556.79 376.25 557.27
  L 376.25 559.48
  Q 376.25 559.96 375.78 559.85
  C 356.85 555.65 341.83 543.83 330.69 528.19
  C 295.07 477.40 290.30 404.19 293.65 344.76
  C 295.17 307.98 302.02 260.72 326.83 231.62
  C 349.59 204.92 389.46 198.20 419.99 216.19
  Z"
/>
<path fill="#357b8b" d="
  M 419.37 223.16
  Q 363.28 279.41 307.28 335.35
  C 306.23 336.39 304.89 336.48 303.85 337.47
  C 306.56 292.64 318.93 223.04 375.01 214.98
  Q 397.92 211.68 419.37 223.16
  Z"
/>
<path fill="#3e7a90" d="
  M 241.80 233.84
  C 207.86 281.23 195.76 337.04 198.60 394.77
  Q 197.14 390.53 197.55 386.19
  A 0.83 0.83 0.0 0 0 196.13 385.52
  L 38.17 543.41
  Q 19.03 503.91 9.47 461.97
  Q 11.06 463.03 11.49 462.36
  Q 11.75 461.95 11.79 461.92
  Q 21.41 452.14 31.14 442.51
  Q 31.34 442.31 31.42 442.08
  Q 31.52 441.79 31.54 441.49
  Q 31.58 441.01 32.06 441.00
  Q 32.20 441.00 32.34 441.00
  Q 32.62 441.00 32.81 440.80
  Q 47.82 425.81 62.81 410.81
  Q 63.05 410.57 63.06 410.00
  Q 63.06 409.51 63.55 409.50
  Q 63.70 409.50 63.84 409.50
  Q 64.12 409.50 64.31 409.30
  Q 79.32 394.31 94.31 379.31
  Q 94.55 379.07 94.56 378.50
  Q 94.56 378.01 95.05 378.00
  Q 95.20 378.00 95.34 378.00
  Q 95.62 378.00 95.81 377.80
  Q 110.82 362.81 125.81 347.81
  Q 126.05 347.57 126.06 347.00
  Q 126.06 346.51 126.55 346.50
  Q 126.70 346.50 126.84 346.50
  Q 127.12 346.50 127.31 346.30
  Q 142.32 331.31 157.31 316.31
  Q 157.55 316.07 157.56 315.50
  Q 157.56 315.01 158.05 315.00
  Q 158.20 315.00 158.34 315.00
  Q 158.62 315.00 158.81 314.80
  Q 173.82 299.81 188.81 284.81
  Q 189.05 284.57 189.06 284.00
  Q 189.06 283.51 189.55 283.50
  Q 189.70 283.50 189.84 283.50
  Q 190.12 283.50 190.31 283.30
  Q 205.32 268.31 220.31 253.31
  Q 220.55 253.07 220.56 252.50
  Q 220.56 252.01 221.05 252.00
  Q 221.19 252.00 221.32 252.00
  Q 221.53 252.00 221.68 251.85
  L 240.24 233.66
  Q 240.58 233.32 241.06 233.34
  Q 241.58 233.35 241.80 233.84
  Z"
/>
<path fill="#068070" d="
  M 729.02 237.74
  Q 753.79 300.40 756.00 368.09
  L 756.00 387.80
  Q 754.76 422.29 747.87 456.05
  L 746.63 455.42
  Q 746.14 455.17 745.95 455.68
  Q 745.35 457.28 744.44 458.19
  Q 601.49 601.13 458.55 744.08
  C 457.47 745.16 457.10 746.36 456.75 747.77
  Q 422.60 754.74 387.68 756.00
  L 368.20 756.00
  Q 302.93 753.89 242.07 730.56
  Q 240.15 729.83 238.12 729.12
  Q 239.55 726.86 241.21 725.21
  Q 294.99 671.49 349.02 617.53
  Q 385.41 626.68 423.29 620.69
  C 508.04 607.29 541.91 538.23 546.59 459.91
  Q 546.62 459.40 546.16 459.20
  L 537.95 455.53
  A 0.50 0.49 13.6 0 0 537.25 455.95
  Q 535.71 481.78 530.35 507.07
  C 517.98 565.39 470.75 606.52 411.78 613.02
  Q 384.21 616.06 356.38 611.59
  Q 358.13 607.08 361.07 605.33
  C 363.97 603.61 365.44 600.81 368.19 598.76
  Q 368.26 598.70 368.20 598.64
  L 367.45 597.87
  Q 366.85 597.25 367.71 597.25
  L 368.24 597.25
  Q 368.72 597.25 368.29 597.04
  Q 367.94 596.87 368.08 596.72
  C 392.42 598.40 417.96 595.99 440.74 587.69
  C 489.13 570.07 511.80 526.11 517.89 477.74
  C 518.87 469.90 519.77 459.29 517.79 450.91
  Q 518.56 449.55 518.67 448.07
  A 0.11 0.08 60.3 0 0 518.49 447.99
  Q 518.46 448.13 518.41 448.26
  A 0.09 0.09 0.0 0 1 518.27 448.30
  L 517.84 447.98
  Q 517.14 447.47 518.00 447.35
  C 518.83 447.24 519.22 447.31 519.85 446.67
  Q 623.11 343.38 726.39 240.12
  Q 726.75 239.76 727.25 239.72
  Q 728.65 239.59 729.02 237.74
  Z"
/>
<path fill="#267d83" d="
  M 293.65 344.76
  C 290.30 404.19 295.07 477.40 330.69 528.19
  Q 330.36 528.63 329.88 528.46
  A 0.24 0.15 -3.1 0 0 329.56 528.69
  Q 329.63 528.75 329.69 528.81
  Q 329.78 528.90 329.75 528.94
  Q 324.48 534.93 318.38 539.01
  C 278.24 495.04 270.57 425.10 271.30 369.02
  L 271.52 364.04
  Q 271.54 363.76 271.69 364.00
  Q 271.76 364.11 271.80 364.25
  Q 271.88 364.56 272.00 364.26
  Q 272.05 364.12 272.10 363.98
  Q 272.25 363.59 272.25 364.01
  L 272.25 365.24
  Q 272.25 366.35 272.51 365.27
  L 273.09 362.81
  Q 273.20 362.34 273.54 362.01
  L 292.33 343.32
  Q 293.07 342.59 293.33 343.59
  L 293.65 344.76
  Z"
/>
<path fill="#357b8b" d="
  M 198.60 394.77
  Q 199.40 418.09 203.70 440.98
  L 202.10 441.01
  Q 201.60 441.02 201.26 441.37
  Q 131.65 510.99 62.02 580.60
  Q 61.69 580.93 61.31 581.66
  Q 60.79 582.67 60.00 582.28
  Q 47.67 563.04 38.17 543.41
  L 196.13 385.52
  A 0.83 0.83 0.0 0 1 197.55 386.19
  Q 197.14 390.53 198.60 394.77
  Z"
/>
<path fill="#267d83" d="
  M 203.70 440.98
  C 213.20 493.37 239.68 541.96 285.11 571.57
  Q 284.85 572.23 284.96 573.06
  Q 285.02 573.55 284.67 573.91
  L 166.99 691.58
  Q 102.29 647.78 60.00 582.28
  Q 60.79 582.67 61.31 581.66
  Q 61.69 580.93 62.02 580.60
  Q 131.65 510.99 201.26 441.37
  Q 201.60 441.02 202.10 441.01
  L 203.70 440.98
  Z"
/>
<path fill="#117264" d="
  M 747.87 456.05
  C 716.02 603.55 603.84 714.92 456.75 747.77
  C 457.10 746.36 457.47 745.16 458.55 744.08
  Q 601.49 601.13 744.44 458.19
  Q 745.35 457.28 745.95 455.68
  Q 746.14 455.17 746.63 455.42
  L 747.87 456.05
  Z"
/>
<path fill="#ffffff" d="
  M 349.02 617.53
  Q 318.91 609.15 292.29 590.45
  Q 290.70 589.33 291.07 588.03
  Q 291.26 587.36 291.85 587.73
  Q 321.72 606.38 356.38 611.59
  Q 384.21 616.06 411.78 613.02
  C 470.75 606.52 517.98 565.39 530.35 507.07
  Q 535.71 481.78 537.25 455.95
  A 0.50 0.49 13.6 0 1 537.95 455.53
  L 546.16 459.20
  Q 546.62 459.40 546.59 459.91
  C 541.91 538.23 508.04 607.29 423.29 620.69
  Q 385.41 626.68 349.02 617.53
  Z"
/>
<path fill="#137f78" d="
  M 285.11 571.57
  Q 322.78 594.80 368.08 596.72
  Q 367.94 596.87 368.29 597.04
  Q 368.72 597.25 368.24 597.25
  L 367.71 597.25
  Q 366.85 597.25 367.45 597.87
  L 368.20 598.64
  Q 368.26 598.70 368.19 598.76
  C 365.44 600.81 363.97 603.61 361.07 605.33
  Q 358.13 607.08 356.38 611.59
  Q 321.72 606.38 291.85 587.73
  Q 291.26 587.36 291.07 588.03
  Q 290.70 589.33 292.29 590.45
  Q 318.91 609.15 349.02 617.53
  Q 294.99 671.49 241.21 725.21
  Q 239.55 726.86 238.12 729.12
  Q 200.54 714.10 166.99 691.58
  L 284.67 573.91
  Q 285.02 573.55 284.96 573.06
  Q 284.85 572.23 285.11 571.57
  Z"
/>
</svg>
