<?xml version="1.0" encoding="utf-8"?>
<!DOCTYPE svg PUBLIC "-//W3C//DTD SVG 1.0//EN" "http://www.w3.org/TR/2001/REC-SVG-20010904/DTD/svg10.dtd">
<svg version="1.0" xmlns="http://www.w3.org/2000/svg" width="756px" height="756px" viewBox="0 0 756 756" preserveAspectRatio="xMidYMid meet">
 <g fill="#ffffff">
  <path d="M372 625.3 c-17.2 -2.6 -23.9 -4 -34.1 -7.3 -14.3 -4.7 -29.2 -11.7 -41.1 -19.5 -8.6 -5.6 -8.8 -5.8 -8.8 -9.6 0 -3.8 0.1 -3.9 3.7 -3.9 2.5 0 5.8 1.3 10.2 3.9 34.9 20.7 87.2 27.7 128.4 17.1 43.3 -11 79.3 -44.9 93.2 -87.5 3.7 -11.6 7.3 -30.4 9.2 -49.2 l1.7 -16.3 3.5 0 c2 0 5.5 0.8 7.8 1.8 5 2 4.9 1 2.8 20.4 -8.5 80.1 -45 129.6 -107.2 145.3 -15.4 3.9 -30.6 5.5 -49.7 5.4 -9.4 -0.1 -18.2 -0.3 -19.6 -0.6z"/>
  <path d="M349.7 598.5 c-38.6 -5.3 -70.7 -21.2 -96.3 -47.7 -31.3 -32.5 -49.4 -74 -56 -128.8 -2.2 -18 -2.5 -62.1 -0.6 -78.5 6.8 -57 27.9 -102.5 64.6 -138.7 50 -49.3 117.7 -59.8 196.6 -30.3 24.2 9 39.6 11.9 50.1 9.5 3 -0.7 8.6 -2.7 12.6 -4.6 7.6 -3.6 10.7 -4.1 14.8 -2.2 4.6 2.1 3.5 6 -7.4 25.6 -14.1 25.2 -35.4 68.8 -44.1 90.5 -2.3 5.6 -2.4 5.7 -6.4 5.7 -2.3 0 -4.6 -0.4 -5.2 -0.8 -0.6 -0.4 -2.3 -6.3 -3.8 -13.1 -6.6 -29.9 -16.8 -49.5 -35.1 -67.6 -14.8 -14.7 -28.2 -21.7 -47.8 -25.1 -37.4 -6.5 -74.6 18.6 -93 62.6 -23 55.2 -24.6 162.7 -3.4 224.5 16.1 46.7 43.4 75.8 79.7 85.1 10.6 2.7 34.4 2.7 45 0 17.7 -4.5 29.7 -11.3 42.1 -23.5 19.3 -19.2 30.5 -45.3 35.4 -82.4 1.8 -14.1 3.3 -18 7.6 -20.2 4.2 -2.2 12.9 -1.6 16.7 1.2 5.1 3.7 6.3 9.8 5.8 27.8 -0.6 18.5 -2.7 30 -8.7 48 -17.1 50.4 -50.1 76.7 -104.9 83.5 -11.6 1.4 -46.3 1.1 -58.3 -0.5z"/>
  <path d="M364.9 560.6 c-9.8 -3.4 -18.4 -9 -26.9 -17.6 -23.3 -23.2 -38.6 -62.7 -45.7 -117.5 -2.6 -20.2 -2.6 -85.5 0 -106.5 2.5 -20.3 6.1 -37.2 10.8 -51.3 7 -20.6 13.3 -31.3 25.8 -43.8 10.8 -10.7 20.5 -15.9 35.6 -19 11.8 -2.5 30.1 -2.2 40 0.5 12.6 3.5 24.4 10.4 35 20.5 5 4.8 5.5 5.6 5.5 9.7 0 4.4 0 4.4 -3.5 4.4 -2.5 0 -5.6 -1.5 -11.5 -5.5 -17.2 -11.7 -30.8 -16.8 -44.5 -16.7 -37.8 0.4 -63.2 29.5 -73.9 84.7 -3.7 18.8 -4.8 31.6 -5.3 60.8 -0.9 49.6 3.1 82.1 14.3 115.7 12.3 37.1 29.7 60.5 54.2 72.9 4 2 4.2 2.4 4.2 6.6 l0 4.5 -3.7 -0.1 c-2.1 0 -6.8 -1.1 -10.4 -2.3z"/>
  <path d="M491.3 313.8 c-3.7 -1.9 -4.3 -2.7 -4.3 -5.2 0 -4.5 24 -52.6 44.1 -88.3 16.5 -29.3 17.2 -30.3 20.1 -30.3 1.7 0 4.6 0.9 6.4 2.1 5 3 4.7 7.2 -1.2 17.4 -19.8 34.3 -35.8 65 -47.5 91 -6.6 14.8 -6.7 15 -10 15.2 -1.9 0.1 -5.3 -0.7 -7.6 -1.9z"/>
 </g>
 <g fill="#52779c">
  <path d="M2 344.1 c0 -4.1 3.2 -26.1 5.6 -38.9 11 -57.9 37.9 -115.8 76 -163.7 11.3 -14.2 43.7 -46.6 57.9 -57.9 54.9 -43.7 119.3 -71 188.8 -80.1 15 -1.9 15.7 -1.9 15.7 0.3 0 2.3 -339.9 342.2 -342.3 342.2 -1 0 -1.7 -0.8 -1.7 -1.9z"/>
 </g>
 <g fill="#4a7896">
  <path d="M2 412.3 c-1.5 -14.8 -1.8 -51.6 -0.6 -62.4 l0.7 -6.5 170.8 -170.8 170.7 -170.7 16 -1 c16.4 -1 31.5 -0.7 53.7 1.3 10.5 0.9 12.7 1.4 12.7 2.7 0 2.1 -419 421.1 -421.1 421.1 -1.3 0 -1.8 -2.4 -2.9 -13.7z"/>
 </g>
 <g fill="#447993">
  <path d="M13.1 475 c-3.4 -12.9 -6.2 -26.7 -8.6 -42 l-1.5 -9.5 210.3 -210.2 210.2 -210.3 9.5 1.5 c27.3 4.2 54 10.8 54 13.4 0 0.9 -31.7 33.3 -70.5 72.1 -39.1 39.1 -70.5 71.3 -70.5 72.2 0 1.1 -1 2 -2.7 2.4 -49.7 10.7 -91.4 44.9 -118.8 97.6 -6.2 12 -13.5 29.9 -15 36.6 -0.5 2.6 -1.1 3.3 -2.5 2.9 -1.3 -0.3 -26.4 24.2 -94.6 92.4 -51.1 51.1 -93.6 92.9 -94.5 92.9 -1.3 0 -2.4 -2.9 -4.8 -12z"/>
 </g>
 <g fill="#3b7a8e">
  <path d="M36.7 539.3 c-4.8 -9.5 -12.8 -29.7 -17.3 -43.2 l-3.7 -11.3 96.4 -96.4 c53 -53 97.1 -96.4 97.9 -96.4 1.3 0 1.3 -0.1 0 -1 -1.3 -0.8 -1.2 -1 0.3 -1 2.4 0 2.1 2.1 -0.4 2.7 -1.6 0.4 -1.7 0.8 -0.7 1.4 1 0.7 0.9 0.9 -0.4 0.9 -2.1 0 -2.4 1.6 -0.6 2.2 1 0.4 0.6 3.2 -1.4 11.4 -5.4 21.5 -8.8 49 -8.8 71.4 l0 9.5 -78.3 78.3 c-43 43 -78.5 78.2 -78.9 78.2 -0.4 0 -2.3 -3 -4.1 -6.7z"/>
  <path d="M277.2 297.3 c7.1 -40 19.3 -66.2 39.9 -85.9 16.6 -15.7 32.9 -22.4 55.4 -22.7 14.9 -0.2 21.5 0.7 21.5 3.1 0 2.8 -12.1 14.2 -15 14.2 -6.7 0 -22 4.2 -30 8.1 -13.7 6.8 -26.5 20.6 -35.7 38.4 -3 5.8 -11.3 29.2 -11.3 31.7 0 2.3 -22.3 23.8 -24.6 23.8 l-2.1 0 1.9 -10.7z"/>
  <path d="M319 263.3 c0.1 -1.9 9.3 -17.9 13.4 -23.2 7.3 -9.4 17.8 -17.5 27.9 -21.3 l4.7 -1.8 0 2.8 c0 2.2 -3.8 6.5 -20.8 23.5 -14.6 14.6 -21.4 20.7 -23 20.7 -1.2 0 -2.2 -0.3 -2.2 -0.7z"/>
  <path d="M411 164.9 c-19.5 -4.1 -40.7 -4.8 -59 -1.8 -10.7 1.7 -12.3 2 -13.1 2.4 -0.4 0.3 -0.9 -0.1 -1.2 -0.8 -0.3 -0.9 28.3 -30.2 73.3 -75.2 l73.8 -73.8 11.3 3.7 c20 6.6 49.9 19.4 49.9 21.4 0 0.9 -125.3 126.3 -126 126.1 -0.3 -0.1 -4.3 -1 -9 -2z"/>
 </g>
 <g fill="#347b8a">
  <path d="M62.2 584.8 c-8.8 -13.7 -15.4 -24.9 -20.3 -35.1 l-3.4 -6.7 78.5 -78.5 c43.2 -43.2 79 -78.5 79.7 -78.5 0.7 0 1.3 3.4 1.8 9.8 1.2 18.7 3.6 37.8 6.5 51.2 l2.9 13.5 -68.2 68.3 c-37.5 37.5 -68.5 68.2 -68.8 68.2 -0.4 0 -4.3 -5.5 -8.7 -12.2z"/>
  <path d="M271.6 389.9 c-1.6 -8 0.3 -54.6 2.9 -73.9 0.8 -5.8 1.6 -11.1 1.7 -11.8 0.1 -0.6 0.4 -1 0.7 -0.7 0.3 0.3 5.5 -4.3 11.6 -10.3 14.2 -14.1 14.7 -14.3 12.3 -4.4 -4.4 18.6 -7.8 51.4 -7.8 75.9 0 13 -0.2 14.3 -1.8 14.3 -1 0 -4.9 3.2 -8.7 7 -3.8 3.9 -7.7 7 -8.6 7 -1 0 -1.9 -1.1 -2.3 -3.1z"/>
  <path d="M303.3 346.8 c1.2 -29.6 6.2 -58.3 13.9 -78.6 2.1 -5.8 3.9 -7.9 24.7 -28.7 21.6 -21.6 22.6 -22.5 27.5 -23.4 15.6 -3 27.3 -2.2 40.6 3 7.5 2.9 23.4 11.7 25.5 14.2 0.6 0.6 0.7 0.9 0.3 0.6 -0.4 -0.3 -29.7 28.4 -65 63.8 -40.5 40.5 -65 64.3 -66.2 64.3 -1.8 0 -1.9 -0.7 -1.3 -15.2z"/>
  <path d="M437 229.3 c-14.4 -14.2 -31.3 -21.9 -50.7 -23 -5.1 -0.3 -9.3 -0.9 -9.3 -1.2 0 -0.4 3.3 -4 7.4 -8 l7.5 -7.4 6.8 1.8 c8.2 2.2 21.6 8.9 28.6 14.4 2.9 2.2 8.1 6.9 11.6 10.5 6.1 6.1 6.4 6.6 4.9 8.3 -0.9 1 -1.8 3.4 -2 5.4 l-0.3 3.7 -4.5 -4.5z"/>
  <path d="M474 184 c-3.6 -1 -12.1 -3.9 -18.8 -6.4 -10.9 -4.1 -21.6 -7.4 -33.8 -10.6 -2.3 -0.5 -4.5 -1.8 -4.9 -2.7 -0.3 -1 -0.3 -1.4 0.2 -1 0.4 0.4 29 -27.5 63.5 -62 l62.8 -62.8 6.7 3.4 c13.7 6.7 47.3 27.3 47.3 29 0 1.1 -114.5 115.1 -115.5 115 -0.6 0 -3.9 -0.9 -7.5 -1.9z"/>
 </g>
 <g fill="#2b7c85">
  <path d="M101.2 634.5 c-11 -11.4 -32.2 -37.8 -32.2 -40.1 0 -1.6 135.7 -136.7 136.9 -136.3 0.7 0.3 3.4 6.7 6 14.4 4.7 13.9 11.9 30.4 17.4 39.9 l2.8 4.9 -62.1 62.2 -62.1 62.1 -6.7 -7.1z"/>
  <path d="M280.1 460.3 c-4.3 -18.5 -6.8 -36.3 -7.8 -56.1 l-0.6 -13.3 8.9 -9 c4.9 -4.9 9.4 -8.9 10.1 -8.9 0.6 0 1.3 -0.8 1.6 -1.7 0.2 -1 0.5 3.7 0.6 10.4 0.2 16.8 1.7 35 4.2 53.1 l2.2 15.4 -7.2 7.2 c-4.5 4.6 -7.1 8 -7.1 9.4 0 1.2 -0.6 2.2 -1.4 2.2 -0.9 0 -2.1 -2.9 -3.5 -8.7z"/>
  <path d="M306.1 430.8 c-2.2 -16.4 -3.1 -30.7 -3.1 -50.7 l-0.1 -20.5 64.3 -64.5 64.3 -64.6 4.6 3.2 c2.6 1.8 4.9 3.3 5.3 3.3 1.5 0 0.3 -3 -2.4 -6.1 -1.6 -1.9 -3 -3.6 -3 -4 0 -0.3 1.5 -2 3.3 -3.7 l3.4 -3.3 4.1 5.4 c9.4 12.6 17.6 29.5 22.2 45.8 l2 7.4 -42.5 42.5 c-23.5 23.5 -42.5 43.3 -42.5 44.3 0 1 -0.8 1.7 -1.8 1.7 -0.9 0 -17.7 16 -37.7 36 -19.8 19.8 -36.7 36 -37.6 36 -1.4 0 -1.9 -1.7 -2.8 -8.2z"/>
  <path d="M510 228 c3.3 -6.7 10.3 -19.8 15.6 -29.2 5.2 -9.3 9.4 -17.1 9.2 -17.3 -2.8 -2.3 -4.7 -2.2 -10.4 0.6 -8.3 4.1 -15.6 5.9 -24.5 5.9 -8.2 0 -18.8 -1.6 -20.4 -3.1 -0.9 -0.9 113 -115.9 114.9 -115.9 2.3 0 28.7 21.2 40.1 32.2 l7.1 6.7 -43.5 43.5 c-36 36 -43.8 43.3 -45.2 42.5 -1.5 -0.8 -2.6 0.5 -7 8.6 -3 5.4 -5.8 9.4 -6.4 9.1 -0.7 -0.2 -7.7 6.1 -15.6 14 -11.6 11.6 -14.9 14.4 -17.1 14.4 l-2.8 0 6 -12z"/>
 </g>
 <g fill="#1c7e7d">
  <path d="M229.5 725.1 c-29.6 -12.5 -62.2 -32.1 -88 -52.8 -12 -9.6 -35.5 -31.9 -35.5 -33.7 0 -1.4 122.2 -123.6 123.6 -123.6 0.6 0 2.4 1.9 3.9 4.3 19.4 29.4 45.7 52.2 74.4 64.2 15 6.3 36 11.4 53.6 12.9 2.8 0.3 5.3 0.5 5.8 0.5 2 0.2 0.3 4.1 -3.3 7.6 -2.2 2.1 -4 4.7 -4 5.7 0 2.2 -1 2.2 -10.6 0.2 -18.3 -3.7 -37.4 -10.8 -50.5 -18.5 -3.6 -2.1 -6.8 -3.9 -7.2 -3.9 -4.1 0 9.4 9.2 25.2 17.2 6.3 3.1 16.1 7.2 21.7 9 5.7 1.8 10.4 3.8 10.4 4.3 0 1 -108.3 109.8 -109.8 110.2 -0.4 0.1 -4.7 -1.5 -9.7 -3.6z"/>
  <path d="M350 620.4 c0 -2 0.4 -2.5 1.6 -2 0.9 0.3 2.4 0.6 3.5 0.6 1.2 0 1.9 0.7 1.9 2 0 1.6 -0.7 2 -3.5 2 -3.1 0 -3.5 -0.3 -3.5 -2.6z"/>
  <path d="M381 569.9 c-28.6 -2.8 -50 -14.7 -69.1 -38.7 -10.3 -12.8 -20.5 -32.8 -26.8 -52.5 -4.9 -15.4 -5 -15 5 -25.4 l8.6 -8.9 1.7 8.8 c3.1 16.4 11.7 42 18.7 56 12.1 24.4 30.8 42.6 49.8 48.7 7.7 2.5 7.1 2.4 7.1 0.6 0 -0.8 -1.9 -2.4 -4.2 -3.6 -18.7 -9.5 -33.8 -26.2 -44.9 -49.3 -6.7 -14 -14.1 -37.1 -17.5 -54.4 l-2.8 -14.3 36.5 -36.5 c20.2 -20.2 37.2 -36.4 38.1 -36.4 1.1 0 1.8 -0.7 1.8 -1.8 0 -2.5 84.4 -86.6 86.2 -85.9 0.9 0.3 2.2 3.9 3.2 9.4 2.5 12.3 4.9 13.6 8.6 4.6 7.4 -18.3 24 -53.3 25.2 -53.3 0.5 0 0.6 -0.5 0.2 -1.2 -0.4 -0.6 -0.3 -0.8 0.3 -0.5 0.5 0.3 9.5 -7.9 19.8 -18.4 10.4 -10.4 19.5 -18.7 20.2 -18.5 0.8 0.3 -3.9 9.5 -13.4 26.3 -8 14.2 -21 38.8 -28.9 54.8 l-14.4 29 4.3 2.1 c2.3 1.3 4.5 1.9 4.8 1.6 0.4 -0.4 3 -6.1 5.9 -12.7 10.3 -23.4 28.9 -59.2 48.4 -93 2.5 -4.4 4.6 -8.3 4.6 -8.7 0 -0.4 -1.3 -1.5 -3 -2.5 -1.6 -0.9 -3 -2.2 -3 -2.8 0 -1.4 85.2 -86.5 86.6 -86.5 1.8 0 24.1 23.5 33.7 35.5 20.9 26 41.3 60.2 53.3 89.1 l3.6 8.7 -9.6 9.6 c-8.7 8.7 -9.6 10 -9.6 13.4 0 3.6 -0.1 3.7 -3.7 3.7 -3.7 0 -6.5 2.7 -94.5 90.8 -76.4 76.3 -90.8 91.1 -90.8 93.5 0 4.1 -2.4 3.3 -4 -1.5 -2.6 -7.3 -9.9 -10.5 -15.7 -6.9 -3.9 2.4 -5.5 7.6 -7.3 23.1 l-1.2 10.5 -43.6 43.8 c-35.6 35.6 -43.2 43.7 -41.2 43.7 4.4 0 7 1.2 7 3 0 2.1 -1.9 3 -6.6 3 -3 0 -3.4 -0.3 -3.4 -2.7 l0 -2.7 -3.2 3.1 c-4 3.7 -8.5 4.4 -20.8 3.2z"/>
  <path d="M548.3 195.3 c-1.8 -0.7 -1.6 -2.3 0.2 -2.3 0.8 0 1.5 0.7 1.5 1.5 0 0.8 -0.1 1.5 -0.2 1.4 -0.2 0 -0.9 -0.3 -1.5 -0.6z"/>
 </g>
 <g fill="#097f71">
  <path d="M356 754.9 c-24.6 -1.5 -53.9 -6.2 -76.3 -12.4 -20.2 -5.5 -43.7 -13.8 -43.7 -15.4 0 -0.3 24.7 -25.3 54.8 -55.4 30.1 -30.1 54.6 -55 54.3 -55.3 -0.5 -0.5 2.3 0.5 6.9 2.2 0.8 0.4 2.6 0.8 4 0.9 1.4 0.2 7.2 1.1 13 1.9 20.7 3.1 47.6 1.6 69.3 -3.9 62 -15.7 98.9 -65.5 107.2 -144.8 0.7 -7.3 1.3 -13.2 1.2 -13.3 -0.1 0 -2.1 -0.8 -4.5 -1.9 -2.3 -1 -4.4 -1.6 -4.6 -1.4 -0.1 0.2 -1 7.7 -2 16.6 -1.9 18.6 -5.4 37.3 -9.1 48.8 -6.3 19.3 -17.8 38 -32.4 52.6 -27 26.9 -60.5 39.9 -103.1 39.9 -19.4 0 -32.8 -1.5 -34.7 -3.8 -1.4 -1.6 -1.4 -1.6 -0.9 0.1 0.3 1.1 0.2 1.6 -0.4 1.2 -2 -1.2 -0.9 -3.1 4.5 -8.5 3 -3 5.1 -5.6 4.6 -6 -0.5 -0.3 6.1 -0.4 14.7 -0.2 58.7 1.2 100.2 -19.9 121.6 -61.8 6.4 -12.4 12.7 -30.4 15.7 -45 2.6 -12.3 3.3 -38 1.2 -41.5 -1.1 -1.8 7.6 -10.8 103.5 -106.7 57.6 -57.7 105.3 -104.8 105.9 -104.8 1.7 0 3.4 3.6 8.3 18 15.8 46.9 22.7 95.6 20 141.9 -0.6 10.7 -1.5 20.1 -2 21 -1.1 1.9 -333.3 334.1 -335.2 335.2 -1.6 0.9 -34.1 3 -43.2 2.8 -3.3 -0.1 -11.7 -0.5 -18.6 -1z m351 -493.4 c0 -0.8 -0.7 -1.5 -1.5 -1.5 -0.8 0 -1.5 0.7 -1.5 1.5 0 0.8 0.7 1.5 1.5 1.5 0.8 0 1.5 -0.7 1.5 -1.5z"/>
  <path d="M395 568.7 c0 -1.9 94.3 -95.7 96.3 -95.7 1.4 0 1.6 0.6 1.1 2.8 -7.6 33.4 -16.4 51.5 -33.3 68.3 -8.8 8.7 -18.7 15.4 -28.3 19.1 -7.3 2.8 -18.8 5.8 -18.8 4.8 0 -0.4 -0.9 -1 -1.9 -1.3 -1.3 -0.3 -1.8 0 -1.5 0.8 0.6 1.4 -3.7 2.5 -9.7 2.5 -2.5 0 -3.9 -0.5 -3.9 -1.3z"/>
 </g>
 <g fill="#0e7566">
  <path d="M414 752.8 c0 -1.7 337.1 -338.8 338.8 -338.8 0.8 0 1.1 1.1 0.7 3.8 -0.3 2 -1 7.3 -1.6 11.7 -3.4 25.7 -9.9 52.3 -19 77.5 l-3.1 8.5 -106.7 106.8 c-61.4 61.5 -107.9 107.4 -109.7 108.2 -19.1 8.1 -57.1 17.9 -83.9 21.4 -4.4 0.6 -9.7 1.3 -11.7 1.6 -2.7 0.4 -3.8 0.1 -3.8 -0.7z"/>
 </g>
 <g fill="#146e62">
  <path d="M512.4 728.9 c-0.7 -1.3 214.3 -216.9 216.3 -216.9 2 0 1.6 2.1 -2.7 12.5 -12.6 30.1 -32.3 63.2 -53.6 90 -11.3 14.2 -43.7 46.6 -57.9 57.9 -26.8 21.3 -59.9 41 -90 53.6 -10.7 4.4 -11.1 4.5 -12.1 2.9z"/>
 </g>
</svg>