<?xml version="1.0" standalone="yes"?>
<svg xmlns="http://www.w3.org/2000/svg" width="756" height="756">
<path style="fill:#010101; stroke:none;" d="M0 0L0 351L1 351C1.00479 313.06 12.6138 272.961 26.6001 238C67.7697 135.09 153.906 54.0314 259 19C288.074 9.30878 320.168 1.00397 351 1L318 0L246 0L0 0z"/>
<path style="fill:#2d7b85; stroke:none;" d="M286 572C159.011 486.484 169.513 256.368 301 180.019C340.177 157.271 386.46 157.656 429 168.891C447.217 173.703 464.444 182.697 483 186.072C493.211 187.929 502.781 188.638 513 186.317C520.808 184.543 526.778 179.35 535 181L491.13 267L479 297C468.858 290.915 468.204 266.834 463.992 256C454.803 232.363 438.543 210.656 416 198.334C369.455 172.894 317.091 197.563 294.271 242C275.759 278.049 272.642 321.255 271.99 361C271.466 392.863 272.485 424.599 279.217 456C284.022 478.414 291.782 500.402 303.818 520C306.5 524.367 313.177 537.565 319.06 537.565C323.257 537.566 327.777 531.346 331 529C295.306 471.888 289.212 403.873 293.885 338C296.264 304.472 301.441 268.498 320.679 240C342.142 208.207 385.119 195.674 419 215.613C427.286 220.489 440.078 227.897 442 238C412.115 214.453 366.916 202.436 337.207 234.06C325.853 246.146 318.528 262.225 313.926 278C305.021 308.527 303 340.388 303 372C303 422.561 307.587 478.446 336 522C347.783 513.422 357.702 501.298 368 491L425 434L603 256L668 191C673.457 185.543 689.731 174.26 690.238 166.196C690.454 162.767 686.608 158.632 684.776 155.999C679.243 148.043 673.143 140.374 666.86 133C639.766 101.202 607.86 74.2479 572 52.8007C426.263 -34.3631 233.128 -11.1726 112 108.01C17.4921 201.001 -22.4586 343.586 11.1655 472C28.6281 538.691 63.8682 602.211 114 649.941C125.679 661.06 138.084 671.478 151 681.125C154.603 683.816 161.379 690.542 166.196 690.238C170.107 689.992 173.455 685.531 176 682.999L198 661L255 604C265.298 593.702 277.422 583.783 286 572z"/>
<path style="fill:#010101; stroke:none;" d="M405 0L405 1C442.94 1.00488 483.039 12.6138 518 26.6C620.91 67.7697 701.969 153.906 737 259C746.691 288.074 754.996 320.168 755 351L756 351L756 0L405 0z"/>
<path style="fill:#0b8274; stroke:none;" d="M673 141L674 142L673 141M687 160L688 161L687 160z"/>
<path style="fill:#8eb7be; stroke:none;" d="M363 161L363 162L373 162L363 161z"/>
<path style="fill:#fdfefe; stroke:none;" d="M479 296C490.383 256.009 515.432 218.325 535 182C527.135 178.095 519.802 184.803 512 186.828C502.469 189.303 491.495 188.266 482 186.101C459.21 180.905 437.958 170.613 415 165.675C369.438 155.876 322.354 163.664 284 190.733C202.894 247.973 185.407 361.169 206.116 452C217.618 502.447 246.848 552.257 294 576.732C348.251 604.891 433.104 609.29 479.804 563.694C502.71 541.328 515.581 506.577 518.032 475C518.743 465.842 521.905 449.133 512.847 442.845C506.988 438.777 499.262 441.584 496.91 448.011C494.298 455.149 494.702 463.549 493.376 471C490.754 485.732 486.838 500.519 480.241 514C454.671 566.254 386.873 588.94 337 554.957C311.497 537.579 296.43 510.436 286.298 482C264.934 422.033 266.127 348.699 279.007 287C287.751 245.111 311.535 199.508 357 189.81C400.934 180.438 441.474 208.056 460.201 247C465.563 258.15 469.025 270.001 471.865 282C473.188 287.592 472.866 293.82 479 296z"/>
<path style="fill:#8eb7be; stroke:none;" d="M381 161L381 162L390 162L381 161M354 162L354 163L358 163L354 162M395 162L395 163L399 163L395 162M347 163L347 164L350 164L347 163M402 163L402 164L406 164L402 163z"/>
<path style="fill:#0b8274; stroke:none;" d="M689 163L690 164L689 163z"/>
<path style="fill:#8eb7be; stroke:none;" d="M342 164L342 165L345 165L342 164M408 164L408 165L411 165L408 164M338.667 165.333L339.333 165.667L338.667 165.333M414.667 165.333L415.333 165.667L414.667 165.333M334.667 166.333L335.333 166.667L334.667 166.333M418.667 166.333L419.333 166.667L418.667 166.333z"/>
<path style="fill:#0b8274; stroke:none;" d="M691 166C682.689 177.417 670.978 187.022 661 197L605 253L430 428L362 496C356.203 501.797 339.139 513.601 338.228 522C337.797 525.971 342.327 530.22 344.628 533C349.851 539.311 356.129 545.052 363 549.538C367.947 552.767 373.978 554.719 377 560C357.858 558.057 342.173 543.536 331 529L319 539L319 540C330.324 549.844 341.666 559.141 356 564.283C402.957 581.129 455.113 562.469 478.201 518C488.897 497.399 491.577 475.508 495.2 453C496.217 446.681 500.476 439.249 507.999 440.532C522.859 443.067 519.754 468.487 518.278 479C513.326 514.272 498.394 551.063 469 572.828C431.336 600.718 377.073 602.531 333 592.109C322 589.507 311.18 585.64 301 580.731C296.956 578.782 290.647 573.482 286 574.175C281.656 574.824 277.906 580.095 275 583L253 605C224.048 633.952 194.038 662.172 166 692L169 692C173.535 699.183 184.767 703.727 192 707.853C213.248 719.975 235.821 729.607 259 737.333C346.727 766.575 444.145 761.716 529 725.284C548.137 717.067 566.379 706.869 584 695.807C590.957 691.439 600.926 686.289 605 679C612.393 677.694 618.193 669.992 624.036 665.589C640.416 653.245 655.072 637.571 667.541 621.364C671.552 616.151 677.81 611.734 679 605C686.533 600.79 691.988 590.251 696.397 583C707.035 565.503 717.189 547.853 725.284 529C761.715 444.145 766.575 346.727 737.333 259C729.599 235.797 719.987 213.269 707.853 192C703.727 184.767 699.183 173.535 692 169L691 166z"/>
<path style="fill:#8eb7be; stroke:none;" d="M331 167L332 168L331 167M422.667 167.333L423.333 167.667L422.667 167.333M327.667 168.333L328.333 168.667L327.667 168.333M426.667 168.333L427.333 168.667L426.667 168.333z"/>
<path style="fill:#2d7b85; stroke:none;" d="M692 168L693 169L692 168z"/>
<path style="fill:#8eb7be; stroke:none;" d="M324.667 169.333L325.333 169.667L324.667 169.333M430.667 169.333L431.333 169.667L430.667 169.333M321.667 170.333L322.333 170.667L321.667 170.333M434 170L435 171L434 170M319 171L320 172L319 171M437.667 171.333L438.333 171.667L437.667 171.333M316.667 172.333L317.333 172.667L316.667 172.333M440.667 172.333L441.333 172.667L440.667 172.333M314 173L315 174L314 173M443.667 173.333L444.333 173.667L443.667 173.333M312 174L313 175L312 174M446.667 174.333L447.333 174.667L446.667 174.333z"/>
<path style="fill:#2d7b85; stroke:none;" d="M696 174L697 175L696 174z"/>
<path style="fill:#8eb7be; stroke:none;" d="M309.667 175.333L310.333 175.667L309.667 175.333M449.667 175.333L450.333 175.667L449.667 175.333M307 176L308 177L307 176M452 176L453 177L452 176M305 177L306 178L305 177M455 177L456 178L455 177M303 178L304 179L303 178M457.667 178.333L458.333 178.667L457.667 178.333M301 179L302 180L301 179M460 179L461 180L460 179M530 179L531 180L530 179M300 180L301 181L300 180M463 180L464 181L463 180M527 180L528 181L527 180M532 180L533 181L532 180M298 181L299 182L298 181M466 181L467 182L466 181M525 181L526 182L525 181M534 181L535 182L534 181M296 182L297 183L296 182M469 182L470 183L469 182M523 182L524 183L523 182M472 183L473 184L472 183M521 183L522 184L521 183M293 184L294 185L293 184M475.667 184.333L476.333 184.667L475.667 184.333M519 184L520 185L519 184M533 184L534 185L533 184M291 185L292 186L291 185M479 185L480 186L479 185M516 185L517 186L516 185M290 186L291 187L290 186M483 186L483 187L486 187L483 186M512.667 186.333L513.333 186.667L512.667 186.333M532 186L533 187L532 186M288 187L289 188L288 187M489 187L489 188L492 188L489 187M506 187L506 188L510 188L506 187M287 188L288 189L287 188M363 188L363 189L372 189L363 188M377 188L377 189L385 189L377 188M531 188L532 189L531 188M285 189L286 190L285 189M358 189L358 190L361 190L358 189M388 189L388 190L392 190L388 189M530 189L531 190L530 189M284 190L285 191L284 190M353.667 190.333L354.333 190.667L353.667 190.333M394.667 190.333L395.333 190.667L394.667 190.333M350 191L351 192L350 191M398.667 191.333L399.333 191.667L398.667 191.333M529 191L530 192L529 191M281 192L282 193L281 192M346.667 192.333L347.333 192.667L346.667 192.333M402 192L403 193L402 192M280 193L281 194L280 193M344 193L345 194L344 193M404.667 193.333L405.333 193.667L404.667 193.333M528 193L529 194L528 193z"/>
<path style="fill:#fdfefe; stroke:none;" d="M551 193C536.803 222.682 518.494 250.514 503.751 280C501.187 285.128 488.633 304.219 492.787 309.266C499.981 318.008 508.59 291.368 510.748 287C519.883 268.515 528.88 250.061 538.873 232C545.141 220.669 553.859 209.287 558 197L551 193z"/>
<path style="fill:#8eb7be; stroke:none;" d="M552 193L553 194L552 193M342 194L343 195L342 194M407 194L408 195L407 194M550 194L551 195L550 194M277 195L278 196L277 195M339 195L340 196L339 195M410 195L411 196L410 195M527 195L528 196L527 195M555 195L556 196L555 195M276 196L277 197L276 196M337 196L338 197L337 196M412 196L413 197L412 196M549 196L550 197L549 196M557 196L558 197L557 196M275 197L276 198L275 197M335 197L336 198L335 197M414 197L415 198L414 197M526 197L527 198L526 197M548 197L549 198L548 197M558 197L559 198L558 197M274 198L275 199L274 198M416 198L417 199L416 198M332 199L333 200L332 199M547 199L548 200L547 199M557 199L558 200L557 199M330 200L331 201L330 200M419 200L420 201L419 200M524 200L525 201L524 200M270 201L271 202L270 201M546 201L547 202L546 201M556 201L557 202L556 201M269 202L270 203L269 202M327 202L328 203L327 202M422 202L423 203L422 202M523 202L524 203L523 202M555 202L556 203L555 202M268 203L269 204L268 203M326 203L327 204L326 203M424 203L425 204L424 203M545 203L546 204L545 203M267 204L268 205L267 204M425 204L426 205L425 204M522 204L523 205L522 204M554 204L555 205L554 204M266 205L267 206L266 205M323 205L324 206L323 205M265 206L266 207L265 206M322 206L323 207L322 206M373 206L373 207L379 207L373 206z"/>
<path style="fill:#fdfefe; stroke:none;" d="M376 560C372.877 551.454 355.764 544.82 349.027 537.99C334.261 523.018 324.756 503.698 318.007 484C303.784 442.487 300.857 397.461 302.941 354C304.252 326.644 306.285 299.139 315.351 273C328.392 235.405 361.838 203.917 404 216.895C417.9 221.173 428.851 229.389 441 237C439.12 227.122 427.078 220.367 419 215.613C389.709 198.376 349.503 205.584 327.316 231C309.22 251.728 301.656 280.408 297.568 307C288.675 364.84 289.906 429.212 309.007 485C320.537 518.674 340.181 549.835 376 560z"/>
<path style="fill:#8eb7be; stroke:none;" d="M390 206L390 207L394 207L390 206M428 206L429 207L428 206M521 206L522 207L521 206M543 206L544 207L543 206M553 206L554 207L553 206M264 207L265 208L264 207M367 207L367 208L370 208L367 207M397.667 207.333L398.333 207.667L397.667 207.333M429 207L430 208L429 207M263 208L264 209L263 208M363.667 208.333L364.333 208.667L363.667 208.333M401.667 208.333L402.333 208.667L401.667 208.333M430 208L431 209L430 208M542 208L543 209L542 208M262 209L263 210L262 209M360 209L361 210L360 209M405 209L406 210L405 209M519 209L520 210L519 209M551 209L552 210L551 209M261 210L262 211L261 210M357 210L358 211L357 210M408 210L409 211L408 210M541 210L542 211L541 210M260 211L261 212L260 211M354 211L355 212L354 211M410 211L411 212L410 211M518 211L519 212L518 211M550 211L551 212L550 211M259 212L260 213L259 212M352 212L353 213L352 212M413 212L414 213L413 212M540 212L541 213L540 212M258 213L259 214L258 213M314 213L315 214L314 213M350 213L351 214L350 213M415 213L416 214L415 213M517 213L518 214L517 213M539 213L540 214L539 213M549 213L550 214L549 213M257 214L258 215L257 214M313 214L314 215L313 214M348 214L349 215L348 214M378 214L378 215L394 215L378 214M417 214L418 215L417 214M256 215L257 216L256 215M312 215L313 216L312 215M346 215L347 216L346 215M371 215L371 216L374 216L371 215M397 215L397 216L400 216L397 215M418 215L419 216L418 215M516 215L517 216L516 215M538 215L539 216L538 215M255 216L256 217L255 216M344 216L345 217L344 216M366 216L366 217L369 217L366 216M401.667 216.333L402.333 216.667L401.667 216.333M420 216L421 217L420 216M547 216L548 217L547 216M342 217L343 218L342 217M363.667 217.333L364.333 217.667L363.667 217.333M405.667 217.333L406.333 217.667L405.667 217.333M422 217L423 218L422 217M515 217L516 218L515 217M537 217L538 218L537 217M341 218L342 219L341 218M360.667 218.333L361.333 218.667L360.667 218.333M408 218L409 219L408 218M423 218L424 219L423 218M546 218L547 219L546 218M309 219L310 220L309 219M358 219L359 220L358 219M411 219L412 220L411 219M425 219L426 220L425 219M514 219L515 220L514 219M536 219L537 220L536 219M252 220L253 221L252 220M308 220L309 221L308 220M338 220L339 221L338 220M356 220L357 221L356 220M413 220L414 221L413 220M426 220L427 221L426 220M535 220L536 221L535 220M545 220L546 221L545 220M251 221L252 222L251 221M307 221L308 222L307 221M337 221L338 222L337 221M354 221L355 222L354 221M416 221L417 222L416 221M428 221L429 222L428 221M443 221L444 222L443 221M513 221L514 222L513 221M250 222L251 223L250 222M352 222L353 223L352 222M418 222L419 223L418 222M429 222L430 223L429 222M444 222L445 223L444 222M534 222L535 223L534 222M249 223L250 224L249 223M350 223L351 224L350 223M420 223L421 224L420 223M430 223L431 224L430 223M445 223L446 224L445 223M512 223L513 224L512 223M543 223L544 224L543 223M333 224L334 225L333 224M421 224L422 225L421 224M431 224L432 225L431 224M533 224L534 225L533 224M304 225L305 226L304 225M332 225L333 226L332 225M347 225L348 226L347 225M423 225L424 226L423 225M542 225L543 226L542 225M247 226L248 227L247 226M303 226L304 227L303 226M331 226L332 227L331 226M346 226L347 227L346 226M425 226L426 227L425 226M434 226L435 227L434 226M447 226L448 227L447 226M510 226L511 227L510 226M532 226L533 227L532 226M246 227L247 228L246 227M330 227L331 228L330 227M435 227L436 228L435 227M448 227L449 228L448 227M541 227L542 228L541 227M245 228L246 229L245 228M302 228L303 229L302 228M329 228L330 229L329 228M343 228L344 229L343 228M428 228L429 229L428 228M436 228L437 229L436 228M509 228L510 229L509 228M301 229L302 230L301 229M328 229L329 230L328 229M342 229L343 230L342 229M437 229L438 230L437 229M530 229L531 230L530 229M540 229L541 230L540 229M327 230L328 231L327 230M431 230L432 231L431 230M438 230L439 231L438 230M450 230L451 231L450 230M508 230L509 231L508 230M539 230L540 231L539 230M243 231L244 232L243 231M300 231L301 232L300 231M439 231L440 232L439 231M451 231L452 232L451 231M529 231L530 232L529 231M242 232L243 233L242 232M299 232L300 233L299 232M434 232L435 233L434 232M440 232L441 233L440 232M507 232L508 233L507 232M538 232L539 233L538 232M325 233L326 234L325 233M441 233L441 238L442 238L441 233M452 233L453 234L452 233M528 233L529 234L528 233M241 234L242 235L241 234M298 234L299 235L298 234M324 234L325 235L324 234M437 234L438 235L437 234M506 234L507 235L506 234M537 234L538 235L537 234M240 235L241 236L240 235M323 235L324 236L323 235M438 235L439 236L438 235M527 235L528 236L527 235M297 236L298 237L297 236M454 236L455 237L454 236M505 236L506 237L505 236M526 236L527 237L526 236M536 236L537 237L536 236M296 237L297 238L296 237M334 237L335 238L334 237M238 238L239 239L238 238M321 238L322 239L321 238M333 238L334 239L333 238M455 238L456 239L455 238M504 238L505 239L504 238M525 238L526 239L525 238M535 238L536 239L535 238M237 239L238 240L237 239M295 239L296 240L295 239M503 240L504 241L503 240M524 240L525 241L524 240M534 240L535 241L534 240M236 241L237 242L236 241M294 241L295 242L294 241M319 241L320 242L319 241M331 241L332 242L331 241M457 241L458 242L457 241M533 241L534 242L533 241M235 242L236 243L235 242M330 242L331 243L330 242M502 242L503 243L502 242M523 242L524 243L523 242M293 243L294 244L293 243M318 243L319 244L318 243M458 243L459 244L458 243M522 243L523 244L522 243M532 243L533 244L532 243M234 244L235 245L234 244M317 244L318 245L317 244M501 244L502 245L501 244M292 245L293 246L292 245M328 245L329 246L328 245M459 245L460 246L459 245M521 245L522 246L521 245M531 245L532 246L531 245M316 246L317 247L316 246M500 246L501 247L500 246M232 247L233 248L232 247M291 247L292 248L291 247M460 247L461 248L460 247M520 247L521 248L520 247M530 247L531 248L530 247M315 248L316 249L315 248M326 248L327 249L326 248M231 249L232 250L231 249M461 249L462 250L461 249M499 249L500 250L499 249M519 249L520 250L519 249M529 249L530 250L529 249M230 250L231 251L230 250M290 250L291 251L290 250M314 250L315 251L314 250M325 250L326 251L325 250M498 251L499 252L498 251M518 251L519 252L518 251M528 251L529 252L528 251M229 252L230 253L229 252M289 252L290 253L289 252M313 252L314 253L313 252M462 252L463 253L462 252M323 253L324 254L323 253M497 253L498 254L497 253M517 253L518 254L517 253M527 253L528 254L527 253M228 254L229 255L228 254M312 254L313 255L312 254M463 254L464 255L463 254M288 255L289 256L288 255M322 255L323 256L322 255M496 255L497 256L496 255M516 255L517 256L516 255M526 255L527 256L526 255M227 256L228 257L227 256M311 256L312 257L311 256M515 256L516 257L515 256M226.333 257.667L226.667 258.333L226.333 257.667M287 257L288 258L287 257M321.333 257.667L321.667 258.333L321.333 257.667M464 257L465 258L464 257M495 257L496 258L495 257M525 257L526 258L525 257M310 258L311 259L310 258M514 258L515 259L514 258M524 258L525 259L524 258M225 259L226 260L225 259M465 259L466 260L465 259M494 259L495 260L494 259M286 260L287 261L286 260M309.333 260.667L309.667 261.333L309.333 260.667M320 260L321 261L320 260M513 260L514 261L513 260M523 260L524 261L523 260M224 261L225 262L224 261M493 261L494 262L493 261M319 262L320 263L319 262M466.333 262.667L466.667 263.333L466.333 262.667M512 262L513 263L512 262M522 262L523 263L522 262M223 263L224 264L223 263M285 263L286 264L285 263M308 263L309 264L308 263M492 263L493 264L492 263M318 264L319 265L318 264M511 264L512 265L511 264M521 264L522 265L521 264M222 265L223 266L222 265M467.333 265.667L467.667 266.333L467.333 265.667M491.333 265.667L491.667 266.333L491.333 265.667M284 266L285 267L284 266M307 266L308 267L307 266M510 266L511 267L510 266M520 266L521 267L520 266M221 267L222 268L221 267M317 267L318 268L317 267M306.333 268.667L306.667 269.333L306.333 268.667M468.333 268.667L468.667 269.333L468.333 268.667M490 268L491 269L490 268M509 268L510 269L509 268M519 268L520 269L519 268M220.333 269.667L220.667 270.333L220.333 269.667M283.333 269.667L283.667 270.333L283.333 269.667M316.333 269.667L316.667 270.333L316.333 269.667M489 270L490 271L489 270M508 270L509 271L508 270M518 270L519 271L518 270M305 271L306 272L305 271M219 272L220 273L219 272M282.333 272.667L282.667 273.333L282.333 272.667M315.333 272.667L315.667 273.333L315.333 272.667M469.333 272.667L469.667 273.333L469.333 272.667M488 272L489 273L488 272M507 272L508 273L507 272M517 272L518 273L517 272M218 274L219 275L218 274M304.333 274.667L304.667 275.333L304.333 274.667M506 274L507 275L506 274M516 274L517 275L516 274M314 275L315 276L314 275M487 275L488 276L487 275M217 276L218 277L217 276M281.333 276.667L281.667 277.333L281.333 276.667M470.333 276.667L470.667 277.333L470.333 276.667M505 276L506 277L505 276M515 276L516 277L515 276M486 277L487 278L486 277M216.333 278.667L216.667 279.333L216.333 278.667M303 278L304 279L303 278M313.333 278.667L313.667 279.333L313.333 278.667M504 278L505 279L504 278M514 278L515 279L514 278M485 279L486 280L485 279M280.333 280.667L280.667 281.333L280.333 280.667M471.333 280.667L471.667 281.333L471.333 280.667M503 280L504 281L503 280M215 281L216 282L215 281M302.333 281.667L302.667 282.333L302.333 281.667M484.333 281.667L484.667 282.333L484.333 281.667M513 281L514 282L513 281M312.333 282.667L312.667 283.333L312.333 282.667M502 282L503 283L502 282M214.333 283.667L214.667 284.333L214.333 283.667M512 283L513 284L512 283M279.333 284.667L279.667 285.333L279.333 284.667M472 284L472 287L473 287L472 284M483 284L484 285L483 284M501 284L502 285L501 284M301.333 285.667L301.667 286.333L301.333 285.667M511 285L512 286L511 285M213 286L214 287L213 286M311 286L312 287L311 286M482 286L483 287L482 286M500 286L501 287L500 286M510 287L511 288L510 287M481 288L482 289L481 288M499 288L500 289L499 288M212 289L213 290L212 289M278.333 289.667L278.667 290.333L278.333 289.667M300 289L300 292L301 292L300 289M310 289L310 292L311 292L310 289M509 289L510 290L509 289M473.333 290.667L473.667 291.333L473.333 290.667M498 290L499 291L498 290M480 291L481 292L480 291M508 291L509 292L508 291M211 292L212 293L211 292M497 292L498 293L497 292M479 293L480 294L479 293M507 293L508 294L507 293M277 294L277 297L278 297L277 294M299.333 294.667L299.667 295.333L299.333 294.667M309.333 294.667L309.667 295.333L309.333 294.667M474 294L475 295L474 294M210 295L211 296L210 295M475 295L476 296L475 295M496 295L497 296L496 295M506.333 295.667L506.667 296.333L506.333 295.667M477.667 296.333L478.333 296.667L477.667 296.333M495 297L496 298L495 297M209 298L210 299L209 298M505 298L506 299L505 298M276 299L276 302L277 302L276 299M298.333 299.667L298.667 300.333L298.333 299.667M308.333 299.667L308.667 300.333L308.333 299.667M494 299L495 300L494 299M504 300L505 301L504 300M208.333 301.667L208.667 302.333L208.333 301.667M493 301L494 302L493 301M503 302L504 303L503 302M492 303L493 304L492 303M307 304L307 307L308 307L307 304M502 304L503 305L502 304M207 305L208 306L207 305M297 305L297 308L298 308L297 305M491 305L492 306L491 305M275 306L275 309L276 309L275 306M501 307L502 308L501 307M206.333 308.667L206.667 309.333L206.333 308.667M490 308L491 309L490 308M491 309L492 310L491 309M500 309L501 310L500 309M306 310L306 314L307 314L306 310M493 310L494 311L493 310M296 311L296 314L297 314L296 311M495 311L496 312L495 311M499 311L500 312L499 311M205.333 312.667L205.667 313.333L205.333 312.667M498 312L499 313L498 312M274 313L274 317L275 317L274 313M204.333 317.667L204.667 318.333L204.333 317.667M305 317L305 321L306 321L305 317M295 318L295 323L296 323L295 318M203 321L203 324L204 324L203 321M273 322L273 327L274 327L273 322M202 326L202 329L203 329L202 326M304 326L304 332L305 332L304 326M294 328L294 333L295 333L294 328M201 332L201 335L202 335L201 332M272 333L272 339L273 339L272 333M303 337L303 346L304 346L303 337M200 339L200 343L201 343L200 339M293 341L293 350L294 350L293 341M199 348L199 353L200 353L199 348M271 349L271 368L272 368L271 349M302 358L302 388L303 388L302 358M198 360L198 372L199 372L198 360M292 370L292 376L293 376L292 370M271 378L271 398L272 398L271 378M198 387L198 401L199 401L198 387M293 395L293 403L294 403L293 395M303 400L303 409L304 409L303 400z"/>
<path style="fill:#010101; stroke:none;" d="M0 405L0 756L351 756L351 755C320.168 754.996 288.074 746.691 259 737C159.351 703.784 77.136 629.423 33.3237 534C20.5985 506.285 11.8402 476.879 6.00257 447C3.44599 433.915 4.57597 417.244 0 405z"/>
<path style="fill:#8eb7be; stroke:none;" d="M272 405L272 412L273 412L272 405z"/>
<path style="fill:#010101; stroke:none;" d="M755 405C754.996 435.832 746.691 467.926 737 497C701.969 602.094 620.91 688.23 518 729.4C483.039 743.386 442.94 754.995 405 755L405 756L756 756L756 510L756 438L755 405z"/>
<path style="fill:#8eb7be; stroke:none;" d="M199 408L199 414L200 414L199 408M294 411L294 416L295 416L294 411M304 415L304 420L305 420L304 415M200 418L200 423L201 423L200 418M273 419L273 423L274 423L273 419M295 421L295 426L296 426L295 421M305 425L305 429L306 429L305 425M201 427L201 430L202 430L201 427M274 427L274 431L275 431L274 427M296 430L296 433L297 433L296 430M202 433L202 436L203 436L202 433M306 433L306 436L307 436L306 433M275 435L275 439L276 439L275 435M297 436L297 440L298 440L297 436M203 439L203 442L204 442L203 439M307 440L307 443L308 443L307 440z"/>
<path style="fill:#2d7b85; stroke:none;" d="M503 440L504 441L503 440z"/>
<path style="fill:#8eb7be; stroke:none;" d="M504 440L504 441L509 441L504 440z"/>
<path style="fill:#2d7b85; stroke:none;" d="M509 440L510 441L509 440z"/>
<path style="fill:#8eb7be; stroke:none;" d="M501 441L502 442L501 441M511 441L512 442L511 441M276.333 442.667L276.667 443.333L276.333 442.667z"/>
<path style="fill:#2d7b85; stroke:none;" d="M499 442L500 443L499 442M513 442L514 443L513 442z"/>
<path style="fill:#8eb7be; stroke:none;" d="M298 443L298 446L299 446L298 443z"/>
<path style="fill:#2d7b85; stroke:none;" d="M498 443L499 444L498 443M514 443L515 444L514 443z"/>
<path style="fill:#8eb7be; stroke:none;" d="M204 444L204 447L205 447L204 444M498 444L499 445L498 444z"/>
<path style="fill:#2d7b85; stroke:none;" d="M515 444L516 445L515 444z"/>
<path style="fill:#8eb7be; stroke:none;" d="M308 445L308 448L309 448L308 445M497 445L498 446L497 445M516 446L517 447L516 446M277 447L277 450L278 450L277 447z"/>
<path style="fill:#2d7b85; stroke:none;" d="M496 447L497 448L496 447z"/>
<path style="fill:#8eb7be; stroke:none;" d="M299 448L299 451L300 451L299 448M496 448L497 449L496 448z"/>
<path style="fill:#2d7b85; stroke:none;" d="M517 448L518 449L517 448z"/>
<path style="fill:#8eb7be; stroke:none;" d="M205.333 449.667L205.667 450.333L205.333 449.667M517 449L518 450L517 449z"/>
<path style="fill:#2d7b85; stroke:none;" d="M495.333 450.667L495.667 451.333L495.333 450.667z"/>
<path style="fill:#8eb7be; stroke:none;" d="M309.333 451.667L309.667 452.333L309.333 451.667M278 452L278 455L279 455L278 452M495 452L495 455L496 455L495 452z"/>
<path style="fill:#2d7b85; stroke:none;" d="M518 452L519 453L518 452z"/>
<path style="fill:#8eb7be; stroke:none;" d="M206.333 453.667L206.667 454.333L206.333 453.667M300.333 453.667L300.667 454.333L300.333 453.667M518 453L518 456L519 456L518 453M537 455L538 456L537 455z"/>
<path style="fill:#2d7b85; stroke:none;" d="M538 455L539 456L538 455z"/>
<path style="fill:#8eb7be; stroke:none;" d="M310.333 456.667L310.667 457.333L310.333 456.667z"/>
<path style="fill:#fdfefe; stroke:none;" d="M537 456C536.997 475.792 533.914 497.01 528.268 516C504.919 594.539 425.436 625.025 350 610.727C328.24 606.603 311.152 595.748 291 588C301.306 603.595 331.717 612.934 349 617.367C416.433 634.664 489.338 612.786 523.992 550C535.652 528.875 540.838 504.635 544.405 481C545.899 471.106 549.562 458.511 537 456z"/>
<path style="fill:#8eb7be; stroke:none;" d="M540 456L541 457L540 456M279.333 457.667L279.667 458.333L279.333 457.667M542 457L543 458L542 457M207 458L208 459L207 458M301.333 458.667L301.667 459.333L301.333 458.667z"/>
<path style="fill:#2d7b85; stroke:none;" d="M494.333 458.667L494.667 459.333L494.333 458.667z"/>
<path style="fill:#8eb7be; stroke:none;" d="M544 458L545 459L544 458z"/>
<path style="fill:#2d7b85; stroke:none;" d="M545 458L546 459L545 458z"/>
<path style="fill:#8eb7be; stroke:none;" d="M546 459L546 465L547 465L546 459M311.333 460.667L311.667 461.333L311.333 460.667M494 460L494 464L495 464L494 460M208.333 461.667L208.667 462.333L208.333 461.667M280.333 461.667L280.667 462.333L280.333 461.667z"/>
<path style="fill:#2d7b85; stroke:none;" d="M536.333 461.667L536.667 462.333L536.333 461.667z"/>
<path style="fill:#8eb7be; stroke:none;" d="M302.333 462.667L302.667 463.333L302.333 462.667M536 463L536 468L537 468L536 463M312.333 464.667L312.667 465.333L312.333 464.667M209.333 465.667L209.667 466.333L209.333 465.667M281.333 465.667L281.667 466.333L281.333 465.667z"/>
<path style="fill:#2d7b85; stroke:none;" d="M546.333 465.667L546.667 466.333L546.333 465.667z"/>
<path style="fill:#8eb7be; stroke:none;" d="M303.333 466.667L303.667 467.333L303.333 466.667z"/>
<path style="fill:#2d7b85; stroke:none;" d="M493.333 466.667L493.667 467.333L493.333 466.667z"/>
<path style="fill:#8eb7be; stroke:none;" d="M210.333 468.667L210.667 469.333L210.333 468.667M313.333 468.667L313.667 469.333L313.333 468.667M493 468L493 471L494 471L493 468M282.333 469.667L282.667 470.333L282.333 469.667M304.333 470.667L304.667 471.333L304.333 470.667M518 470L518 475L519 475L518 470M545 470L545 475L546 475L545 470M211.333 471.667L211.667 472.333L211.333 471.667z"/>
<path style="fill:#2d7b85; stroke:none;" d="M535.333 471.667L535.667 472.333L535.333 471.667z"/>
<path style="fill:#8eb7be; stroke:none;" d="M314.333 472.667L314.667 473.333L314.333 472.667z"/>
<path style="fill:#2d7b85; stroke:none;" d="M492 472L493 473L492 472z"/>
<path style="fill:#8eb7be; stroke:none;" d="M283.333 473.667L283.667 474.333L283.333 473.667M305.333 473.667L305.667 474.333L305.333 473.667M492 473L492 476L493 476L492 473M535 473L535 478L536 478L535 473M212.333 474.667L212.667 475.333L212.333 474.667M315.333 475.667L315.667 476.333L315.333 475.667z"/>
<path style="fill:#2d7b85; stroke:none;" d="M518 475L518 478L519 478L518 475M545.333 475.667L545.667 476.333L545.333 475.667z"/>
<path style="fill:#8eb7be; stroke:none;" d="M284.333 476.667L284.667 477.333L284.333 476.667M213.333 477.667L213.667 478.333L213.333 477.667M306 477L307 478L306 477z"/>
<path style="fill:#2d7b85; stroke:none;" d="M491 478L492 479L491 478z"/>
<path style="fill:#8eb7be; stroke:none;" d="M285 479L286 480L285 479M316 479L317 480L316 479M491.333 479.667L491.667 480.333L491.333 479.667M214 480L215 481L214 480M307 480L308 481L307 480M517 480L517 483L518 483L517 480M544 480L544 483L545 483L544 480z"/>
<path style="fill:#2d7b85; stroke:none;" d="M534 481L535 482L534 481z"/>
<path style="fill:#8eb7be; stroke:none;" d="M286 482L287 483L286 482M317 482L318 483L317 482M534 482L534 486L535 486L534 482M215 483L216 484L215 483M308 483L309 484L308 483z"/>
<path style="fill:#2d7b85; stroke:none;" d="M490 483L491 484L490 483M517.333 483.667L517.667 484.333L517.333 483.667M544 483L545 484L544 483z"/>
<path style="fill:#8eb7be; stroke:none;" d="M490 484L491 485L490 484M216.333 485.667L216.667 486.333L216.333 485.667M287 485L288 486L287 485M318 485L319 486L318 485M309 486L310 487L309 486M543 486L543 489L544 489L543 486M319.333 487.667L319.667 488.333L319.333 487.667z"/>
<path style="fill:#2d7b85; stroke:none;" d="M489 487L490 488L489 487z"/>
<path style="fill:#8eb7be; stroke:none;" d="M516.333 487.667L516.667 488.333L516.333 487.667M217 488L218 489L217 488M288 488L289 489L288 488M489 488L490 489L489 488z"/>
<path style="fill:#2d7b85; stroke:none;" d="M533 488L534 489L533 488z"/>
<path style="fill:#8eb7be; stroke:none;" d="M310 489L311 490L310 489z"/>
<path style="fill:#2d7b85; stroke:none;" d="M516 489L517 490L516 489z"/>
<path style="fill:#8eb7be; stroke:none;" d="M533 489L533 492L534 492L533 489z"/>
<path style="fill:#2d7b85; stroke:none;" d="M543 489L544 490L543 489z"/>
<path style="fill:#8eb7be; stroke:none;" d="M218 490L219 491L218 490M320 490L321 491L320 490M289 491L290 492L289 491M311 491L312 492L311 491z"/>
<path style="fill:#2d7b85; stroke:none;" d="M488 491L489 492L488 491z"/>
<path style="fill:#8eb7be; stroke:none;" d="M219.333 492.667L219.667 493.333L219.333 492.667M488 492L489 493L488 492M515.333 492.667L515.667 493.333L515.333 492.667M542 492L542 496L543 496L542 492M290 493L291 494L290 493M321 493L322 494L321 493M312 494L313 495L312 494z"/>
<path style="fill:#2d7b85; stroke:none;" d="M487 494L488 495L487 494M515 494L516 495L515 494M532 494L533 495L532 494z"/>
<path style="fill:#8eb7be; stroke:none;" d="M220 495L221 496L220 495M291 495L292 496L291 495M322.333 495.667L322.667 496.333L322.333 495.667M487 495L488 496L487 495M532 495L532 498L533 498L532 495M313 496L314 497L313 496M514.333 496.667L514.667 497.333L514.333 496.667M221 497L222 498L221 497z"/>
<path style="fill:#2d7b85; stroke:none;" d="M486 497L487 498L486 497z"/>
<path style="fill:#8eb7be; stroke:none;" d="M292 498L293 499L292 498M323 498L324 499L323 498M486 498L487 499L486 498z"/>
<path style="fill:#2d7b85; stroke:none;" d="M514 498L515 499L514 498z"/>
<path style="fill:#8eb7be; stroke:none;" d="M541.333 498.667L541.667 499.333L541.333 498.667M222 499L223 500L222 499M314 499L315 500L314 499M293 500L294 501L293 500M324 500L325 501L324 500z"/>
<path style="fill:#2d7b85; stroke:none;" d="M485 500L486 501L485 500z"/>
<path style="fill:#8eb7be; stroke:none;" d="M513.333 500.667L513.667 501.333L513.333 500.667z"/>
<path style="fill:#2d7b85; stroke:none;" d="M531 500L532 501L531 500M541 500L542 501L541 500z"/>
<path style="fill:#8eb7be; stroke:none;" d="M223 501L224 502L223 501M315 501L316 502L315 501M485 501L486 502L485 501M531.333 501.667L531.667 502.333L531.333 501.667M294 502L295 503L294 502M325 502L326 503L325 502z"/>
<path style="fill:#2d7b85; stroke:none;" d="M513 502L514 503L513 502z"/>
<path style="fill:#8eb7be; stroke:none;" d="M224 503L225 504L224 503M316 503L317 504L316 503z"/>
<path style="fill:#2d7b85; stroke:none;" d="M484 503L485 504L484 503z"/>
<path style="fill:#8eb7be; stroke:none;" d="M540.333 503.667L540.667 504.333L540.333 503.667M295 504L296 505L295 504M484 504L485 505L484 504M512 504L513 505L512 504M225 505L226 506L225 505M317 505L318 506L317 505M326 505L327 506L326 505z"/>
<path style="fill:#2d7b85; stroke:none;" d="M512 505L513 506L512 505M530 505L531 506L530 505z"/>
<path style="fill:#8eb7be; stroke:none;" d="M296 506L297 507L296 506M483 506L484 507L483 506M530.333 506.667L530.667 507.333L530.333 506.667M226 507L227 508L226 507M318 507L319 508L318 507M327 507L328 508L327 507M511.333 507.667L511.667 508.333L511.333 507.667M539.333 507.667L539.667 508.333L539.333 507.667M297 508L298 509L297 508z"/>
<path style="fill:#2d7b85; stroke:none;" d="M482 508L483 509L482 508z"/>
<path style="fill:#8eb7be; stroke:none;" d="M227 509L228 510L227 509M319 509L320 510L319 509M328 509L329 510L328 509M482 509L483 510L482 509z"/>
<path style="fill:#2d7b85; stroke:none;" d="M529 509L530 510L529 509M539 509L540 510L539 509z"/>
<path style="fill:#8eb7be; stroke:none;" d="M228 510L229 511L228 510M298 510L299 511L298 510M329 510L330 511L329 510z"/>
<path style="fill:#2d7b85; stroke:none;" d="M481 510L482 511L481 510z"/>
<path style="fill:#8eb7be; stroke:none;" d="M510.333 510.667L510.667 511.333L510.333 510.667M529.333 510.667L529.667 511.333L529.333 510.667M320 511L321 512L320 511M481 511L482 512L481 511M538.333 511.667L538.667 512.333L538.333 511.667M229 512L230 513L229 512M299 512L300 513L299 512M330 512L331 513L330 512M321 513L322 514L321 513M480 513L481 514L480 513M509.333 513.667L509.667 514.333L509.333 513.667z"/>
<path style="fill:#2d7b85; stroke:none;" d="M528 513L529 514L528 513M538 513L539 514L538 513z"/>
<path style="fill:#8eb7be; stroke:none;" d="M230 514L231 515L230 514M300 514L301 515L300 514M331 514L332 515L331 514M528.333 514.667L528.667 515.333L528.333 514.667M322 515L323 516L322 515M479 515L480 516L479 515M537.333 515.667L537.667 516.333L537.333 515.667M332 516L333 517L332 516M508 516L509 517L508 516M232 517L233 518L232 517M302 517L303 518L302 517M323 517L324 518L323 517M478 517L479 518L478 517z"/>
<path style="fill:#2d7b85; stroke:none;" d="M508 517L509 518L508 517z"/>
<path style="fill:#8eb7be; stroke:none;" d="M527.333 517.667L527.667 518.333L527.333 517.667M324 518L325 519L324 518M536.333 518.667L536.667 519.333L536.333 518.667M233 519L234 520L233 519M303 519L304 520L303 519M334 519L335 520L334 519M477 519L478 520L477 519M507 519L508 520L507 519M234 520L235 521L234 520M325 520L326 521L325 520z"/>
<path style="fill:#2d7b85; stroke:none;" d="M526 520L527 521L526 520z"/>
<path style="fill:#8eb7be; stroke:none;" d="M335 521L336 522L335 521M476 521L477 522L476 521M506.333 521.667L506.667 522.333L506.333 521.667M526 521L527 522L526 521M535.333 521.667L535.667 522.333L535.333 521.667M235 522L236 523L235 522M305 522L306 523L305 522M326 522L327 523L326 522M336 522L337 523L336 522z"/>
<path style="fill:#2d7b85; stroke:none;" d="M475 522L476 523L475 522z"/>
<path style="fill:#8eb7be; stroke:none;" d="M236 523L237 524L236 523M327 523L328 524L327 523z"/>
<path style="fill:#2d7b85; stroke:none;" d="M337 523L338 524L337 523z"/>
<path style="fill:#8eb7be; stroke:none;" d="M475 523L476 524L475 523z"/>
<path style="fill:#2d7b85; stroke:none;" d="M525 523L526 524L525 523z"/>
<path style="fill:#8eb7be; stroke:none;" d="M337 524L338 525L337 524z"/>
<path style="fill:#2d7b85; stroke:none;" d="M474 524L475 525L474 524z"/>
<path style="fill:#8eb7be; stroke:none;" d="M505 524L506 525L505 524M525 524L526 525L525 524M307 525L308 526L307 525M328 525L329 526L328 525M338 525L339 526L338 525M534 525L535 526L534 525M238 526L239 527L238 526M329 526L330 527L329 526z"/>
<path style="fill:#2d7b85; stroke:none;" d="M339 526L340 527L339 526z"/>
<path style="fill:#8eb7be; stroke:none;" d="M473 526L474 527L473 526M504 526L505 527L504 526z"/>
<path style="fill:#2d7b85; stroke:none;" d="M524 526L525 527L524 526M340 527L341 528L340 527M472 527L473 528L472 527M504 527L505 528L504 527z"/>
<path style="fill:#8eb7be; stroke:none;" d="M524 527L525 528L524 527M309 528L310 529L309 528M340 528L341 529L340 528M533 528L534 529L533 528M240 529L241 530L240 529M310 529L311 530L310 529M331 529L332 530L331 529M341 529L342 530L341 529M471 529L472 530L471 529M503 529L504 530L503 529M523 529L524 530L523 529z"/>
<path style="fill:#2d7b85; stroke:none;" d="M533 529L534 530L533 529z"/>
<path style="fill:#8eb7be; stroke:none;" d="M241 530L242 531L241 530M332 530L333 531L332 530z"/>
<path style="fill:#2d7b85; stroke:none;" d="M342 530L343 531L342 530M470 530L471 531L470 530M332 531L333 532L332 531M343 531L344 532L343 531z"/>
<path style="fill:#8eb7be; stroke:none;" d="M502 531L503 532L502 531z"/>
<path style="fill:#2d7b85; stroke:none;" d="M522 531L523 532L522 531z"/>
<path style="fill:#8eb7be; stroke:none;" d="M532 531L533 532L532 531M312 532L313 533L312 532z"/>
<path style="fill:#2d7b85; stroke:none;" d="M333 532L334 533L333 532M344 532L345 533L344 532z"/>
<path style="fill:#8eb7be; stroke:none;" d="M469 532L470 533L469 532M522 532L523 533L522 532M243 533L244 534L243 533M313 533L314 534L313 533M334 533L335 534L334 533M344 533L345 534L344 533z"/>
<path style="fill:#2d7b85; stroke:none;" d="M468 533L469 534L468 533z"/>
<path style="fill:#8eb7be; stroke:none;" d="M501 533L502 534L501 533M531 533L532 534L531 533M244 534L245 535L244 534M314 534L315 535L314 534M335 534L336 535L335 534M345 534L346 535L345 534z"/>
<path style="fill:#2d7b85; stroke:none;" d="M467 534L468 535L467 534z"/>
<path style="fill:#8eb7be; stroke:none;" d="M521 534L522 535L521 534M245 535L246 536L245 535M336 535L337 536L336 535M346 535L347 536L346 535M500 535L501 536L500 535M530 535L531 536L530 535M337 536L338 537L337 536M347 536L348 537L347 536M466 536L467 537L466 536M520 536L521 537L520 536z"/>
<path style="fill:#2d7b85; stroke:none;" d="M530 536L531 537L530 536z"/>
<path style="fill:#8eb7be; stroke:none;" d="M338 537L339 538L338 537M348 537L349 538L348 537M465 537L466 538L465 537M499 537L500 538L499 537M247 538L248 539L247 538z"/>
<path style="fill:#2d7b85; stroke:none;" d="M338 538L339 539L338 538z"/>
<path style="fill:#8eb7be; stroke:none;" d="M349 538L350 539L349 538z"/>
<path style="fill:#2d7b85; stroke:none;" d="M464 538L465 539L464 538M519 538L520 539L519 538z"/>
<path style="fill:#8eb7be; stroke:none;" d="M529 538L530 539L529 538M248 539L249 540L248 539M318 539L319 540L318 539z"/>
<path style="fill:#2d7b85; stroke:none;" d="M339 539L340 540L339 539z"/>
<path style="fill:#8eb7be; stroke:none;" d="M350 539L351 540L350 539z"/>
<path style="fill:#2d7b85; stroke:none;" d="M463 539L464 540L463 539M498 539L499 540L498 539z"/>
<path style="fill:#8eb7be; stroke:none;" d="M519 539L520 540L519 539M249 540L250 541L249 540M319 540L320 541L319 540z"/>
<path style="fill:#2d7b85; stroke:none;" d="M340 540L341 541L340 540z"/>
<path style="fill:#8eb7be; stroke:none;" d="M351 540L352 541L351 540M497 540L498 541L497 540z"/>
<path style="fill:#2d7b85; stroke:none;" d="M518 540L519 541L518 540z"/>
<path style="fill:#8eb7be; stroke:none;" d="M528 540L529 541L528 540M250 541L251 542L250 541M320 541L321 542L320 541z"/>
<path style="fill:#2d7b85; stroke:none;" d="M341 541L342 542L341 541z"/>
<path style="fill:#8eb7be; stroke:none;" d="M352 541L353 542L352 541M518 541L519 542L518 541z"/>
<path style="fill:#2d7b85; stroke:none;" d="M528 541L529 542L528 541z"/>
<path style="fill:#8eb7be; stroke:none;" d="M321 542L322 543L321 542z"/>
<path style="fill:#2d7b85; stroke:none;" d="M342 542L343 543L342 542z"/>
<path style="fill:#8eb7be; stroke:none;" d="M353 542L354 543L353 542M496 542L497 543L496 542z"/>
<path style="fill:#2d7b85; stroke:none;" d="M517 542L518 543L517 542z"/>
<path style="fill:#8eb7be; stroke:none;" d="M527.333 542.667L527.667 543.333L527.333 542.667M322 543L325 546L322 543z"/>
<path style="fill:#2d7b85; stroke:none;" d="M323 543L324 544L323 543M343 543L344 544L343 543z"/>
<path style="fill:#8eb7be; stroke:none;" d="M344 543L345 544L344 543M354 543L355 544L354 543z"/>
<path style="fill:#2d7b85; stroke:none;" d="M355 543L356 544L355 543M324 544L325 545L324 544z"/>
<path style="fill:#8eb7be; stroke:none;" d="M345 544L346 545L345 544z"/>
<path style="fill:#2d7b85; stroke:none;" d="M356 544L357 545L356 544M495 544L496 545L495 544z"/>
<path style="fill:#8eb7be; stroke:none;" d="M516 544L517 545L516 544z"/>
<path style="fill:#2d7b85; stroke:none;" d="M325 545L326 546L325 545z"/>
<path style="fill:#8eb7be; stroke:none;" d="M346 545L347 546L346 545z"/>
<path style="fill:#2d7b85; stroke:none;" d="M357 545L358 546L357 545z"/>
<path style="fill:#8eb7be; stroke:none;" d="M494 545L495 546L494 545M526 545L527 546L526 545z"/>
<path style="fill:#2d7b85; stroke:none;" d="M326 546L327 547L326 546M347 546L348 547L347 546z"/>
<path style="fill:#8eb7be; stroke:none;" d="M358 546L359 547L358 546M515 546L516 547L515 546z"/>
<path style="fill:#2d7b85; stroke:none;" d="M327 547L328 548L327 547M348 547L349 548L348 547z"/>
<path style="fill:#8eb7be; stroke:none;" d="M359 547L360 548L359 547z"/>
<path style="fill:#2d7b85; stroke:none;" d="M493 547L494 548L493 547z"/>
<path style="fill:#8eb7be; stroke:none;" d="M525 547L526 548L525 547M328 548L329 549L328 548z"/>
<path style="fill:#2d7b85; stroke:none;" d="M349 548L350 549L349 548z"/>
<path style="fill:#8eb7be; stroke:none;" d="M350 548L351 549L350 548z"/>
<path style="fill:#2d7b85; stroke:none;" d="M361 548L362 549L361 548M454 548L455 549L454 548z"/>
<path style="fill:#8eb7be; stroke:none;" d="M492 548L493 549L492 548M514 548L515 549L514 548M257 549L258 550L257 549M329 549L330 550L329 549z"/>
<path style="fill:#2d7b85; stroke:none;" d="M351 549L352 550L351 549z"/>
<path style="fill:#8eb7be; stroke:none;" d="M362 549L363 550L362 549M453 549L454 550L453 549z"/>
<path style="fill:#2d7b85; stroke:none;" d="M513 549L514 550L513 549M524 549L525 550L524 549z"/>
<path style="fill:#8eb7be; stroke:none;" d="M258 550L259 551L258 550M330 550L331 551L330 550z"/>
<path style="fill:#2d7b85; stroke:none;" d="M331 550L332 551L331 550M352 550L353 551L352 550z"/>
<path style="fill:#8eb7be; stroke:none;" d="M353 550L354 551L353 550z"/>
<path style="fill:#2d7b85; stroke:none;" d="M364 550L365 551L364 550z"/>
<path style="fill:#8eb7be; stroke:none;" d="M452 550L453 551L452 550z"/>
<path style="fill:#2d7b85; stroke:none;" d="M491 550L492 551L491 550z"/>
<path style="fill:#8eb7be; stroke:none;" d="M523 550L524 551L523 550M259 551L260 552L259 551z"/>
<path style="fill:#2d7b85; stroke:none;" d="M332 551L333 552L332 551M354 551L355 552L354 551z"/>
<path style="fill:#8eb7be; stroke:none;" d="M365 551L366 552L365 551z"/>
<path style="fill:#2d7b85; stroke:none;" d="M366 551L367 552L366 551z"/>
<path style="fill:#8eb7be; stroke:none;" d="M490 551L491 552L490 551M512 551L513 552L512 551z"/>
<path style="fill:#2d7b85; stroke:none;" d="M523 551L524 552L523 551z"/>
<path style="fill:#8eb7be; stroke:none;" d="M260 552L261 553L260 552M333 552L334 553L333 552M356 552L357 553L356 552M367 552L368 553L367 552z"/>
<path style="fill:#2d7b85; stroke:none;" d="M449 552L450 553L449 552z"/>
<path style="fill:#8eb7be; stroke:none;" d="M489 552L490 553L489 552M522 552L523 553L522 552M334 553L335 554L334 553z"/>
<path style="fill:#2d7b85; stroke:none;" d="M335 553L336 554L335 553M357 553L358 554L357 553z"/>
<path style="fill:#8eb7be; stroke:none;" d="M358 553L359 554L358 553M369 553L370 554L369 553M448 553L449 554L448 553M511 553L512 554L511 553M336 554L337 555L336 554z"/>
<path style="fill:#2d7b85; stroke:none;" d="M359 554L360 555L359 554z"/>
<path style="fill:#8eb7be; stroke:none;" d="M360 554L361 555L360 554M371 554L372 555L371 554z"/>
<path style="fill:#2d7b85; stroke:none;" d="M446 554L447 555L446 554z"/>
<path style="fill:#8eb7be; stroke:none;" d="M447 554L448 555L447 554z"/>
<path style="fill:#2d7b85; stroke:none;" d="M488 554L489 555L488 554z"/>
<path style="fill:#8eb7be; stroke:none;" d="M510 554L511 555L510 554M521 554L522 555L521 554M337 555L338 556L337 555z"/>
<path style="fill:#2d7b85; stroke:none;" d="M338 555L339 556L338 555M361 555L362 556L361 555z"/>
<path style="fill:#8eb7be; stroke:none;" d="M362 555L363 556L362 555M373 555L374 556L373 555M445 555L446 556L445 555z"/>
<path style="fill:#2d7b85; stroke:none;" d="M487 555L488 556L487 555M509 555L510 556L509 555z"/>
<path style="fill:#8eb7be; stroke:none;" d="M265 556L266 557L265 556M339 556L340 557L339 556M364 556L365 557L364 556M375 556L376 557L375 556z"/>
<path style="fill:#2d7b85; stroke:none;" d="M443 556L444 557L443 556z"/>
<path style="fill:#8eb7be; stroke:none;" d="M486 556L487 557L486 556M520 556L521 557L520 556M266 557L267 558L266 557M340 557L341 558L340 557z"/>
<path style="fill:#2d7b85; stroke:none;" d="M341 557L342 558L341 557M366 557L367 558L366 557z"/>
<path style="fill:#8eb7be; stroke:none;" d="M367 557L368 558L367 557z"/>
<path style="fill:#2d7b85; stroke:none;" d="M376 557L376 560L377 560L376 557z"/>
<path style="fill:#8eb7be; stroke:none;" d="M442 557L443 558L442 557M485 557L486 558L485 557M508 557L509 558L508 557M267 558L268 559L267 558M342 558L343 559L342 558z"/>
<path style="fill:#2d7b85; stroke:none;" d="M343 558L344 559L343 558M369 558L370 559L369 558z"/>
<path style="fill:#8eb7be; stroke:none;" d="M370 558L371 559L370 558M440 558L441 559L440 558M484 558L485 559L484 558M507 558L508 559L507 558M519 558L520 559L519 558M268 559L269 560L268 559M344 559L345 560L344 559z"/>
<path style="fill:#2d7b85; stroke:none;" d="M345 559L346 560L345 559M372 559L373 560L372 559z"/>
<path style="fill:#8eb7be; stroke:none;" d="M373.667 559.333L374.333 559.667L373.667 559.333M438 559L439 560L438 559M483 559L484 560L483 559z"/>
<path style="fill:#2d7b85; stroke:none;" d="M506 559L507 560L506 559z"/>
<path style="fill:#8eb7be; stroke:none;" d="M518 559L519 560L518 559M346 560L347 561L346 560z"/>
<path style="fill:#2d7b85; stroke:none;" d="M347 560L348 561L347 560z"/>
<path style="fill:#8eb7be; stroke:none;" d="M436 560L437 561L436 560M482 560L483 561L482 560M348 561L349 562L348 561z"/>
<path style="fill:#2d7b85; stroke:none;" d="M349 561L350 562L349 561z"/>
<path style="fill:#8eb7be; stroke:none;" d="M434 561L435 562L434 561M505 561L506 562L505 561M517 561L518 562L517 561M272 562L273 563L272 562M350 562L351 563L350 562z"/>
<path style="fill:#2d7b85; stroke:none;" d="M351 562L352 563L351 562z"/>
<path style="fill:#8eb7be; stroke:none;" d="M432 562L433 563L432 562z"/>
<path style="fill:#2d7b85; stroke:none;" d="M504 562L505 563L504 562z"/>
<path style="fill:#8eb7be; stroke:none;" d="M516 562L517 563L516 562M273 563L274 564L273 563M352.667 563.333L353.333 563.667L352.667 563.333z"/>
<path style="fill:#2d7b85; stroke:none;" d="M429 563L430 564L429 563z"/>
<path style="fill:#8eb7be; stroke:none;" d="M430 563L431 564L430 563z"/>
<path style="fill:#2d7b85; stroke:none;" d="M503 563L504 564L503 563z"/>
<path style="fill:#8eb7be; stroke:none;" d="M355 564L356 565L355 564z"/>
<path style="fill:#2d7b85; stroke:none;" d="M356 564L357 565L356 564M426 564L427 565L426 564z"/>
<path style="fill:#8eb7be; stroke:none;" d="M427 564L428 565L427 564z"/>
<path style="fill:#2d7b85; stroke:none;" d="M515 564L516 565L515 564z"/>
<path style="fill:#8eb7be; stroke:none;" d="M276 565L277 566L276 565M358 565L359 566L358 565z"/>
<path style="fill:#2d7b85; stroke:none;" d="M359 565L360 566L359 565M423 565L424 566L423 565z"/>
<path style="fill:#8eb7be; stroke:none;" d="M424 565L425 566L424 565M477 565L478 566L477 565M514 565L515 566L514 565M277 566L278 567L277 566M361.667 566.333L362.333 566.667L361.667 566.333z"/>
<path style="fill:#2d7b85; stroke:none;" d="M363 566L364 567L363 566M420 566L421 567L420 566z"/>
<path style="fill:#8eb7be; stroke:none;" d="M421 566L422 567L421 566M476 566L477 567L476 566M501 566L502 567L501 566M365.667 567.333L366.333 567.667L365.667 567.333z"/>
<path style="fill:#2d7b85; stroke:none;" d="M367 567L368 568L367 567z"/>
<path style="fill:#8eb7be; stroke:none;" d="M416.667 567.333L417.333 567.667L416.667 567.333M475 567L476 568L475 567M500 567L501 568L500 567z"/>
<path style="fill:#2d7b85; stroke:none;" d="M513 567L514 568L513 567z"/>
<path style="fill:#8eb7be; stroke:none;" d="M280 568L281 569L280 568M369.667 568.333L370.333 568.667L369.667 568.333z"/>
<path style="fill:#2d7b85; stroke:none;" d="M371 568L372 569L371 568M411 568L412 569L411 568z"/>
<path style="fill:#8eb7be; stroke:none;" d="M412.667 568.333L413.333 568.667L412.667 568.333M474 568L475 569L474 568M499 568L500 569L499 568M512 568L513 569L512 568M375.667 569.333L376.333 569.667L375.667 569.333z"/>
<path style="fill:#2d7b85; stroke:none;" d="M377 569L377 570L380 570L377 569M403.667 569.333L404.333 569.667L403.667 569.333z"/>
<path style="fill:#8eb7be; stroke:none;" d="M405.667 569.333L406.333 569.667L405.667 569.333M473 569L474 570L473 569M498 569L499 570L498 569M283 570L284 571L283 570M386 570L386 571L394 571L386 570z"/>
<path style="fill:#2d7b85; stroke:none;" d="M472 570L473 571L472 570z"/>
<path style="fill:#8eb7be; stroke:none;" d="M497 570L498 571L497 570z"/>
<path style="fill:#2d7b85; stroke:none;" d="M511 570L512 571L511 570z"/>
<path style="fill:#8eb7be; stroke:none;" d="M470 571L471 572L470 571z"/>
<path style="fill:#2d7b85; stroke:none;" d="M496 571L497 572L496 571z"/>
<path style="fill:#8eb7be; stroke:none;" d="M510 571L511 572L510 571M286 572L287 573L286 572M469 572L470 573L469 572z"/>
<path style="fill:#2d7b85; stroke:none;" d="M495 572L496 573L495 572z"/>
<path style="fill:#8eb7be; stroke:none;" d="M509 572L510 573L509 572z"/>
<path style="fill:#2d7b85; stroke:none;" d="M287 573L288 574L287 573z"/>
<path style="fill:#8eb7be; stroke:none;" d="M288 573L289 574L288 573z"/>
<path style="fill:#2d7b85; stroke:none;" d="M468 573L469 574L468 573M494 573L495 574L494 573z"/>
<path style="fill:#8eb7be; stroke:none;" d="M508 573L509 574L508 573M289 574L290 575L289 574M466 574L467 575L466 574z"/>
<path style="fill:#2d7b85; stroke:none;" d="M493 574L494 575L493 574z"/>
<path style="fill:#8eb7be; stroke:none;" d="M291 575L292 576L291 575M465 575L466 576L465 575z"/>
<path style="fill:#2d7b85; stroke:none;" d="M492 575L493 576L492 575M292 576L293 577L292 576z"/>
<path style="fill:#8eb7be; stroke:none;" d="M293 576L294 577L293 576M463 576L464 577L463 576z"/>
<path style="fill:#2d7b85; stroke:none;" d="M491 576L492 577L491 576M506 576L507 577L506 576M294 577L295 578L294 577z"/>
<path style="fill:#8eb7be; stroke:none;" d="M295 577L296 578L295 577z"/>
<path style="fill:#2d7b85; stroke:none;" d="M462 577L463 578L462 577z"/>
<path style="fill:#8eb7be; stroke:none;" d="M490 577L491 578L490 577z"/>
<path style="fill:#2d7b85; stroke:none;" d="M505 577L506 578L505 577M699 577L700 578L699 577M296 578L297 579L296 578z"/>
<path style="fill:#8eb7be; stroke:none;" d="M297 578L298 579L297 578M460 578L461 579L460 578M489 578L490 579L489 578M504 578L505 579L504 578z"/>
<path style="fill:#2d7b85; stroke:none;" d="M298 579L299 580L298 579z"/>
<path style="fill:#8eb7be; stroke:none;" d="M299 579L300 580L299 579M458 579L459 580L458 579M488 579L489 580L488 579M503 579L504 580L503 579z"/>
<path style="fill:#2d7b85; stroke:none;" d="M300 580L301 581L300 580z"/>
<path style="fill:#8eb7be; stroke:none;" d="M301 580L302 581L301 580M456 580L457 581L456 580z"/>
<path style="fill:#2d7b85; stroke:none;" d="M457 580L458 581L457 580z"/>
<path style="fill:#8eb7be; stroke:none;" d="M487 580L488 581L487 580M502 580L503 581L502 580z"/>
<path style="fill:#2d7b85; stroke:none;" d="M302 581L303 582L302 581z"/>
<path style="fill:#8eb7be; stroke:none;" d="M303 581L304 582L303 581z"/>
<path style="fill:#2d7b85; stroke:none;" d="M455 581L456 582L455 581z"/>
<path style="fill:#8eb7be; stroke:none;" d="M486 581L487 582L486 581z"/>
<path style="fill:#2d7b85; stroke:none;" d="M304 582L305 583L304 582z"/>
<path style="fill:#8eb7be; stroke:none;" d="M305 582L306 583L305 582M453 582L454 583L453 582M485 582L486 583L485 582M500 582L501 583L500 582M307 583L308 584L307 583M451 583L452 584L451 583z"/>
<path style="fill:#2d7b85; stroke:none;" d="M483 583L484 584L483 583z"/>
<path style="fill:#8eb7be; stroke:none;" d="M499 583L500 584L499 583z"/>
<path style="fill:#2d7b85; stroke:none;" d="M309 584L310 585L309 584z"/>
<path style="fill:#8eb7be; stroke:none;" d="M310 584L311 585L310 584M448 584L449 585L448 584z"/>
<path style="fill:#2d7b85; stroke:none;" d="M449 584L450 585L449 584z"/>
<path style="fill:#8eb7be; stroke:none;" d="M482 584L483 585L482 584M498 584L499 585L498 584z"/>
<path style="fill:#2d7b85; stroke:none;" d="M311 585L312 586L311 585z"/>
<path style="fill:#8eb7be; stroke:none;" d="M312 585L313 586L312 585M446 585L447 586L446 585M481 585L482 586L481 585M497 585L498 586L497 585z"/>
<path style="fill:#2d7b85; stroke:none;" d="M314 586L315 587L314 586z"/>
<path style="fill:#8eb7be; stroke:none;" d="M315 586L316 587L315 586M444 586L445 587L444 586z"/>
<path style="fill:#2d7b85; stroke:none;" d="M479 586L480 587L479 586z"/>
<path style="fill:#8eb7be; stroke:none;" d="M496 586L497 587L496 586M291 587L292 588L291 587z"/>
<path style="fill:#2d7b85; stroke:none;" d="M292 587L293 588L292 587M317 587L318 588L317 587z"/>
<path style="fill:#8eb7be; stroke:none;" d="M318 587L319 588L318 587M441 587L442 588L441 587z"/>
<path style="fill:#2d7b85; stroke:none;" d="M442 587L443 588L442 587z"/>
<path style="fill:#8eb7be; stroke:none;" d="M478 587L479 588L478 587M495 587L496 588L495 587M293 588L294 589L293 588z"/>
<path style="fill:#2d7b85; stroke:none;" d="M320 588L321 589L320 588z"/>
<path style="fill:#8eb7be; stroke:none;" d="M321 588L322 589L321 588M438 588L439 589L438 588z"/>
<path style="fill:#2d7b85; stroke:none;" d="M439 588L440 589L439 588z"/>
<path style="fill:#8eb7be; stroke:none;" d="M477 588L478 589L477 588M494 588L495 589L494 588M294 589L295 590L294 589z"/>
<path style="fill:#2d7b85; stroke:none;" d="M295 589L296 590L295 589M323 589L324 590L323 589z"/>
<path style="fill:#8eb7be; stroke:none;" d="M324 589L325 590L324 589M435 589L436 590L435 589z"/>
<path style="fill:#2d7b85; stroke:none;" d="M436 589L437 590L436 589M475 589L476 590L475 589z"/>
<path style="fill:#8eb7be; stroke:none;" d="M493 589L494 590L493 589z"/>
<path style="fill:#2d7b85; stroke:none;" d="M291 590L292 591L291 590z"/>
<path style="fill:#8eb7be; stroke:none;" d="M292 590L293 591L292 590M296 590L297 591L296 590z"/>
<path style="fill:#2d7b85; stroke:none;" d="M297 590L298 591L297 590M326 590L327 591L326 590z"/>
<path style="fill:#8eb7be; stroke:none;" d="M327.667 590.333L328.333 590.667L327.667 590.333M432 590L433 591L432 590z"/>
<path style="fill:#2d7b85; stroke:none;" d="M433 590L434 591L433 590z"/>
<path style="fill:#8eb7be; stroke:none;" d="M474 590L475 591L474 590z"/>
<path style="fill:#2d7b85; stroke:none;" d="M492 590L493 591L492 590z"/>
<path style="fill:#8eb7be; stroke:none;" d="M293 591L294 592L293 591M298 591L299 592L298 591z"/>
<path style="fill:#2d7b85; stroke:none;" d="M330 591L331 592L330 591z"/>
<path style="fill:#8eb7be; stroke:none;" d="M331.667 591.333L332.333 591.667L331.667 591.333M428.667 591.333L429.333 591.667L428.667 591.333z"/>
<path style="fill:#2d7b85; stroke:none;" d="M472 591L473 592L472 591z"/>
<path style="fill:#8eb7be; stroke:none;" d="M473 591L474 592L473 591z"/>
<path style="fill:#2d7b85; stroke:none;" d="M491 591L492 592L491 591M690 591L691 592L690 591M294 592L295 593L294 592z"/>
<path style="fill:#8eb7be; stroke:none;" d="M295 592L296 593L295 592M299 592L300 593L299 592z"/>
<path style="fill:#2d7b85; stroke:none;" d="M300 592L301 593L300 592M334 592L335 593L334 592z"/>
<path style="fill:#8eb7be; stroke:none;" d="M335.667 592.333L336.333 592.667L335.667 592.333M424.667 592.333L425.333 592.667L424.667 592.333z"/>
<path style="fill:#2d7b85; stroke:none;" d="M426 592L427 593L426 592z"/>
<path style="fill:#8eb7be; stroke:none;" d="M471 592L472 593L471 592M489 592L490 593L489 592M296 593L297 594L296 593M301 593L302 594L301 593z"/>
<path style="fill:#2d7b85; stroke:none;" d="M302 593L303 594L302 593M339 593L340 594L339 593z"/>
<path style="fill:#8eb7be; stroke:none;" d="M340.667 593.333L341.333 593.667L340.667 593.333M419.667 593.333L420.333 593.667L419.667 593.333z"/>
<path style="fill:#2d7b85; stroke:none;" d="M421 593L422 594L421 593z"/>
<path style="fill:#8eb7be; stroke:none;" d="M469 593L470 594L469 593M488 593L489 594L488 593z"/>
<path style="fill:#2d7b85; stroke:none;" d="M297 594L298 595L297 594z"/>
<path style="fill:#8eb7be; stroke:none;" d="M298 594L299 595L298 594M303 594L304 595L303 594z"/>
<path style="fill:#2d7b85; stroke:none;" d="M304 594L305 595L304 594M344 594L345 595L344 594z"/>
<path style="fill:#8eb7be; stroke:none;" d="M345 594L345 595L348 595L345 594M414.667 594.333L415.333 594.667L414.667 594.333z"/>
<path style="fill:#2d7b85; stroke:none;" d="M416 594L417 595L416 594M467 594L468 595L467 594M487 594L488 595L487 594z"/>
<path style="fill:#8eb7be; stroke:none;" d="M299 595L300 596L299 595M305 595L306 596L305 595z"/>
<path style="fill:#2d7b85; stroke:none;" d="M306 595L307 596L306 595M350.667 595.333L351.333 595.667L350.667 595.333z"/>
<path style="fill:#8eb7be; stroke:none;" d="M352 595L352 596L355 596L352 595M407.667 595.333L408.333 595.667L407.667 595.333z"/>
<path style="fill:#2d7b85; stroke:none;" d="M409.667 595.333L410.333 595.667L409.667 595.333z"/>
<path style="fill:#8eb7be; stroke:none;" d="M466 595L467 596L466 595M485 595L486 596L485 595z"/>
<path style="fill:#2d7b85; stroke:none;" d="M300 596L301 597L300 596z"/>
<path style="fill:#8eb7be; stroke:none;" d="M301 596L302 597L301 596M307 596L308 597L307 596z"/>
<path style="fill:#2d7b85; stroke:none;" d="M308 596L309 597L308 596M358 596L358 597L361 597L358 596z"/>
<path style="fill:#8eb7be; stroke:none;" d="M361 596L361 597L365 597L361 596M397 596L397 597L401 597L397 596z"/>
<path style="fill:#2d7b85; stroke:none;" d="M401.667 596.333L402.333 596.667L401.667 596.333z"/>
<path style="fill:#8eb7be; stroke:none;" d="M464 596L465 597L464 596M484 596L485 597L484 596M302 597L303 598L302 597M309 597L310 598L309 597z"/>
<path style="fill:#2d7b85; stroke:none;" d="M310 597L311 598L310 597M375 597L375 598L387 598L375 597M462 597L463 598L462 597M483 597L484 598L483 597M303 598L304 599L303 598z"/>
<path style="fill:#8eb7be; stroke:none;" d="M304 598L305 599L304 598M311 598L312 599L311 598z"/>
<path style="fill:#2d7b85; stroke:none;" d="M312 598L313 599L312 598M460 598L461 599L460 598z"/>
<path style="fill:#8eb7be; stroke:none;" d="M461 598L462 599L461 598M481 598L482 599L481 598z"/>
<path style="fill:#2d7b85; stroke:none;" d="M685 598L686 599L685 598M305 599L306 600L305 599z"/>
<path style="fill:#8eb7be; stroke:none;" d="M306 599L307 600L306 599M313 599L314 600L313 599z"/>
<path style="fill:#2d7b85; stroke:none;" d="M314 599L315 600L314 599M458 599L459 600L458 599z"/>
<path style="fill:#8eb7be; stroke:none;" d="M459 599L460 600L459 599M480 599L481 600L480 599z"/>
<path style="fill:#2d7b85; stroke:none;" d="M307 600L308 601L307 600z"/>
<path style="fill:#8eb7be; stroke:none;" d="M316 600L317 601L316 600z"/>
<path style="fill:#2d7b85; stroke:none;" d="M317 600L318 601L317 600z"/>
<path style="fill:#8eb7be; stroke:none;" d="M456 600L457 601L456 600M478 600L479 601L478 600M309 601L310 602L309 601M318.667 601.333L319.333 601.667L318.667 601.333M454 601L455 602L454 601z"/>
<path style="fill:#2d7b85; stroke:none;" d="M477 601L478 602L477 601z"/>
<path style="fill:#8eb7be; stroke:none;" d="M311 602L312 603L311 602M321 602L322 603L321 602z"/>
<path style="fill:#2d7b85; stroke:none;" d="M322 602L323 603L322 602z"/>
<path style="fill:#8eb7be; stroke:none;" d="M452 602L453 603L452 602M475 602L476 603L475 602z"/>
<path style="fill:#2d7b85; stroke:none;" d="M312 603L313 604L312 603z"/>
<path style="fill:#8eb7be; stroke:none;" d="M313 603L314 604L313 603M323.667 603.333L324.333 603.667L323.667 603.333z"/>
<path style="fill:#2d7b85; stroke:none;" d="M449 603L450 604L449 603z"/>
<path style="fill:#8eb7be; stroke:none;" d="M450 603L451 604L450 603M473 603L474 604L473 603z"/>
<path style="fill:#2d7b85; stroke:none;" d="M314 604L315 605L314 604z"/>
<path style="fill:#8eb7be; stroke:none;" d="M315 604L316 605L315 604M326.667 604.333L327.333 604.667L326.667 604.333M447 604L448 605L447 604M471 604L472 605L471 604z"/>
<path style="fill:#2d7b85; stroke:none;" d="M472 604L473 605L472 604M316 605L317 606L316 605z"/>
<path style="fill:#8eb7be; stroke:none;" d="M317 605L318 606L317 605M329.667 605.333L330.333 605.667L329.667 605.333z"/>
<path style="fill:#2d7b85; stroke:none;" d="M331 605L332 606L331 605z"/>
<path style="fill:#8eb7be; stroke:none;" d="M444 605L445 606L444 605z"/>
<path style="fill:#2d7b85; stroke:none;" d="M470 605L471 606L470 605M679 605L680 606L679 605M318 606L319 607L318 606z"/>
<path style="fill:#8eb7be; stroke:none;" d="M319 606L320 607L319 606M333 606L334 607L333 606z"/>
<path style="fill:#2d7b85; stroke:none;" d="M334 606L335 607L334 606z"/>
<path style="fill:#8eb7be; stroke:none;" d="M441 606L442 607L441 606M468 606L469 607L468 606z"/>
<path style="fill:#2d7b85; stroke:none;" d="M320 607L321 608L320 607z"/>
<path style="fill:#8eb7be; stroke:none;" d="M321 607L322 608L321 607M336 607L337 608L336 607z"/>
<path style="fill:#2d7b85; stroke:none;" d="M337 607L338 608L337 607z"/>
<path style="fill:#8eb7be; stroke:none;" d="M438 607L439 608L438 607M466 607L467 608L466 607M323 608L324 609L323 608M340.667 608.333L341.333 608.667L340.667 608.333z"/>
<path style="fill:#2d7b85; stroke:none;" d="M342 608L343 609L342 608M434 608L435 609L434 608z"/>
<path style="fill:#8eb7be; stroke:none;" d="M435 608L436 609L435 608M463 608L464 609L463 608z"/>
<path style="fill:#2d7b85; stroke:none;" d="M464 608L465 609L464 608z"/>
<path style="fill:#8eb7be; stroke:none;" d="M325 609L326 610L325 609M344.667 609.333L345.333 609.667L344.667 609.333z"/>
<path style="fill:#2d7b85; stroke:none;" d="M346 609L347 610L346 609M430 609L431 610L430 609z"/>
<path style="fill:#8eb7be; stroke:none;" d="M431.667 609.333L432.333 609.667L431.667 609.333M461 609L462 610L461 609z"/>
<path style="fill:#2d7b85; stroke:none;" d="M462 609L463 610L462 609M327 610L328 611L327 610z"/>
<path style="fill:#8eb7be; stroke:none;" d="M328 610L329 611L328 610M348.667 610.333L349.333 610.667L348.667 610.333z"/>
<path style="fill:#2d7b85; stroke:none;" d="M350.667 610.333L351.333 610.667L350.667 610.333M425 610L426 611L425 610z"/>
<path style="fill:#8eb7be; stroke:none;" d="M426.667 610.333L427.333 610.667L426.667 610.333M459 610L460 611L459 610M330 611L331 612L330 611M354 611L354 612L357 612L354 611z"/>
<path style="fill:#2d7b85; stroke:none;" d="M357 611L358 612L357 611M421 611L422 612L421 611z"/>
<path style="fill:#8eb7be; stroke:none;" d="M422.667 611.333L423.333 611.667L422.667 611.333M457 611L458 612L457 611z"/>
<path style="fill:#2d7b85; stroke:none;" d="M675 611L676 612L675 611M332 612L333 613L332 612z"/>
<path style="fill:#8eb7be; stroke:none;" d="M333 612L334 613L333 612M360 612L360 613L363 613L360 612z"/>
<path style="fill:#2d7b85; stroke:none;" d="M363.667 612.333L364.333 612.667L363.667 612.333M413.667 612.333L414.333 612.667L413.667 612.333z"/>
<path style="fill:#8eb7be; stroke:none;" d="M415.667 612.333L416.333 612.667L415.667 612.333M454 612L455 613L454 612z"/>
<path style="fill:#2d7b85; stroke:none;" d="M455 612L456 613L455 612z"/>
<path style="fill:#8eb7be; stroke:none;" d="M335.667 613.333L336.333 613.667L335.667 613.333M370 613L370 614L374 614L370 613z"/>
<path style="fill:#2d7b85; stroke:none;" d="M374.667 613.333L375.333 613.667L374.667 613.333M403 613L403 614L407 614L403 613z"/>
<path style="fill:#8eb7be; stroke:none;" d="M407 613L407 614L410 614L407 613M451.667 613.333L452.333 613.667L451.667 613.333z"/>
<path style="fill:#2d7b85; stroke:none;" d="M337 614L338 615L337 614z"/>
<path style="fill:#8eb7be; stroke:none;" d="M338 614L339 615L338 614M448 614L449 615L448 614z"/>
<path style="fill:#2d7b85; stroke:none;" d="M449 614L450 615L449 614M340 615L341 616L340 615z"/>
<path style="fill:#8eb7be; stroke:none;" d="M341.667 615.333L342.333 615.667L341.667 615.333M445 615L446 616L445 615z"/>
<path style="fill:#2d7b85; stroke:none;" d="M446 615L447 616L446 615M672 615L673 616L672 615M344 616L345 617L344 616z"/>
<path style="fill:#8eb7be; stroke:none;" d="M345 616L346 617L345 616M442 616L443 617L442 616z"/>
<path style="fill:#2d7b85; stroke:none;" d="M443 616L444 617L443 616M347 617L348 618L347 617z"/>
<path style="fill:#8eb7be; stroke:none;" d="M348.667 617.333L349.333 617.667L348.667 617.333M438.667 617.333L439.333 617.667L438.667 617.333z"/>
<path style="fill:#2d7b85; stroke:none;" d="M440 617L441 618L440 617M351 618L352 619L351 618z"/>
<path style="fill:#8eb7be; stroke:none;" d="M352.667 618.333L353.333 618.667L352.667 618.333M433.667 618.333L434.333 618.667L433.667 618.333z"/>
<path style="fill:#2d7b85; stroke:none;" d="M435 618L436 619L435 618M669 618L670 619L669 618M356 619L357 620L356 619z"/>
<path style="fill:#8eb7be; stroke:none;" d="M357.667 619.333L358.333 619.667L357.667 619.333M428.667 619.333L429.333 619.667L428.667 619.333z"/>
<path style="fill:#2d7b85; stroke:none;" d="M430 619L431 620L430 619z"/>
<path style="fill:#8eb7be; stroke:none;" d="M361 620L361 621L364 621L361 620M423 620L423 621L426 621L423 620z"/>
<path style="fill:#2d7b85; stroke:none;" d="M426 620L427 621L426 620M667 620L667 622L669 620L667 620M366.667 621.333L367.333 621.667L366.667 621.333z"/>
<path style="fill:#8eb7be; stroke:none;" d="M368 621L368 622L371 622L368 621M415 621L415 622L418 622L415 621z"/>
<path style="fill:#2d7b85; stroke:none;" d="M418 621L419 622L418 621M374.667 622.333L375.333 622.667L374.667 622.333z"/>
<path style="fill:#8eb7be; stroke:none;" d="M376 622L376 623L380 623L376 622M403 622L403 623L410 623L403 622z"/>
<path style="fill:#2d7b85; stroke:none;" d="M410 622L411 623L410 622M661 627L662 628L661 627M660 629L661 630L660 629M653 637L654 638L653 637M637 653L638 654L637 653M629 660L630 661L629 660M627 661L628 662L627 661M620 667L620 669L622 667L620 667M618 669L619 670L618 669M615 672L616 673L615 672M611 675L612 676L611 675M605 679L606 680L605 679M598 685L599 686L598 685z"/>
<path style="fill:#0b8274; stroke:none;" d="M160 687L161 688L160 687M163 689L164 690L163 689z"/>
<path style="fill:#2d7b85; stroke:none;" d="M591 690L592 691L591 690M168 692L169 693L168 692M174 696L175 697L174 696M567 705L568 706L567 705M223 723L224 724L223 723z"/>
</svg>
